<?xml version="1.0" encoding="UTF-8" standalone="no"?>
<!-- Created with Inkscape (http://www.inkscape.org/) -->

<svg
   xmlns:dc="http://purl.org/dc/elements/1.1/"
   xmlns:cc="http://creativecommons.org/ns#"
   xmlns:rdf="http://www.w3.org/1999/02/22-rdf-syntax-ns#"
   xmlns:svg="http://www.w3.org/2000/svg"
   xmlns="http://www.w3.org/2000/svg"
   xmlns:sodipodi="http://sodipodi.sourceforge.net/DTD/sodipodi-0.dtd"
   xmlns:inkscape="http://www.inkscape.org/namespaces/inkscape"
   width="200"
   height="200"
   viewBox="0 0 52.916666 52.916668"
   version="1.1"
   id="svg9547"
   inkscape:version="0.92.1 r15371"
   sodipodi:docname="monkeystyping.svg">
  <defs
     id="defs9541" />
  <sodipodi:namedview
     id="base"
     pagecolor="#ffffff"
     bordercolor="#666666"
     borderopacity="1.0"
     inkscape:pageopacity="0.0"
     inkscape:pageshadow="2"
     inkscape:zoom="1.979899"
     inkscape:cx="-17.029451"
     inkscape:cy="106.31728"
     inkscape:document-units="mm"
     inkscape:current-layer="layer1"
     showgrid="false"
     units="px"
     inkscape:window-width="1600"
     inkscape:window-height="847"
     inkscape:window-x="-8"
     inkscape:window-y="-8"
     inkscape:window-maximized="1" />
  <metadata
     id="metadata9544">
    <rdf:RDF>
      <cc:Work
         rdf:about="">
        <dc:format>image/svg+xml</dc:format>
        <dc:type
           rdf:resource="http://purl.org/dc/dcmitype/StillImage" />
        <dc:title />
      </cc:Work>
    </rdf:RDF>
  </metadata>
  <g
     inkscape:label="Laag 1"
     inkscape:groupmode="layer"
     id="layer1"
     transform="translate(0,-244.08332)">
    <path
       style="fill:#494a47;fill-opacity:1;stroke-width:0.05161561"
       d="m 1.9397864,291.16501 c 0,-3.97681 -0.00195,-4.07711 -0.09984,-4.12925 -0.054893,-0.0293 -0.1822184,-0.0535 -0.2829069,-0.0535 -0.1507648,0 -0.1886048,-0.0222 -0.2145105,-0.12531 -0.017355,-0.069 -0.016185,-0.17345 0.00293,-0.23228 0.031785,-0.10017 0.072248,-0.10696 0.6412597,-0.10696 0.3340167,0 0.6219742,-0.0146 0.6398948,-0.0325 0.01794,-0.018 0.014625,-0.0702 -0.00683,-0.11613 -0.021937,-0.0459 -0.020573,-0.39711 0.00292,-0.78036 0.023595,-0.38324 0.05577,-0.90563 0.071468,-1.16086 0.015697,-0.25522 0.05265,-0.493 0.081997,-0.52838 0.083947,-0.10119 0.010335,-0.28642 -0.2159828,-0.54352 -0.2581907,-0.29332 -0.573575,-0.42705 -0.9012639,-0.38213 -0.269179,0.0368 -0.3298535,-0.0204 -0.211956,-0.20042 0.099831,-0.15237 0.3069505,-0.16652 0.6627196,-0.0454 0.378116,0.12884 0.7604344,0.63787 0.9661212,1.28634 0.09282,0.2925 0.09945,0.29844 0.2355413,0.20927 0.067372,-0.0441 0.1799662,-0.0803 0.2502541,-0.0803 0.188517,0 0.202713,-0.0733 0.056063,-0.28946 -0.148844,-0.21934 -0.2051017,-0.39705 -0.1615775,-0.51047 0.040072,-0.10452 0.1362274,-0.0987 0.1362274,0.008 0,0.19872 0.1837785,0.64524 0.318836,0.77462 0.1143874,0.10959 0.1457045,0.12114 0.1457045,0.0537 0,-0.0473 0.061035,-0.12587 0.1355644,-0.17471 0.109961,-0.072 0.2776518,-0.0911 0.8879845,-0.10109 0.7074723,-0.0115 0.7547794,-0.0186 0.7918491,-0.11883 0.055673,-0.15055 0.1976039,-0.13709 0.1976039,0.0187 0,0.13277 -0.1212514,0.28842 -0.2230417,0.28631 -0.033442,-7.7e-4 -0.1653607,-0.0255 -0.2931056,-0.0551 -0.3145947,-0.073 -1.1660847,-0.009 -1.2705564,0.0956 -0.1204811,0.12048 -0.00488,0.19864 0.1421458,0.0958 0.1629719,-0.11414 0.9025997,-0.11702 1.0637776,-0.004 0.062303,0.0436 0.1949812,0.20039 0.2949386,0.3484 0.099957,0.14803 0.2283263,0.32719 0.285247,0.39816 l 0.1035161,0.12904 -0.012772,-0.12691 c -0.00877,-0.0884 0.01638,-0.13296 0.08307,-0.14679 0.1565562,-0.0324 0.1971555,0.059 0.1066849,0.24033 -0.091357,0.18305 -0.068445,0.31726 0.053917,0.31726 0.05343,0 0.079072,-0.0502 0.079072,-0.15484 0,-0.11887 0.023303,-0.15485 0.1001818,-0.15485 0.144164,0 0.1682174,0.0716 0.080535,0.2398 -0.098397,0.18866 -0.097305,0.25768 0.00488,0.29681 0.1236304,0.0475 0.1800636,-0.0121 0.1447783,-0.15266 -0.027398,-0.10933 -0.013845,-0.12587 0.1030384,-0.12587 0.1458312,0 0.1654093,0.0525 0.079462,0.21314 -0.040072,0.075 -0.038513,0.12324 0.00585,0.1767 0.074783,0.0901 0.1605247,0.0468 0.1410538,-0.0711 -0.01014,-0.0616 0.022815,-0.0865 0.1147677,-0.0865 0.097803,0 0.1290319,0.027 0.1290319,0.11147 0,0.15775 0.075952,0.21512 0.1103704,0.0833 0.015892,-0.0607 0.061425,-0.12279 0.1011763,-0.13807 0.08892,-0.0342 0.2271856,0.0145 0.2271856,0.0798 0,0.0265 0.04953,0.11515 0.1100097,0.19698 0.08034,0.10866 0.100776,0.18815 0.075757,0.2947 -0.0741,0.31604 -0.1011763,0.29874 0.5110091,0.32656 l 0.5677738,0.0259 v 0.20646 c 0,0.18195 -0.015308,0.20817 -0.1290417,0.2209 -0.07098,0.008 -0.1813019,0.0259 -0.2451744,0.0397 l -0.1161326,0.0253 v 4.10245 4.10246 H 8.4444151 8.2895649 v -4.07582 c 0,-3.97682 -0.00195,-4.07711 -0.09984,-4.12924 -0.1077964,-0.0577 -5.7096985,-0.0788 -5.8575383,-0.0222 -0.073515,0.0282 -0.081608,0.44011 -0.081608,4.12926 v 4.09792 h -0.1548409 -0.15485 z m 1.0323143,-7.12477 c 0,-0.0283 -0.023205,-0.0516 -0.051578,-0.0516 -0.028372,0 -0.051578,0.0232 -0.051578,0.0516 0,0.0283 0.023205,0.0516 0.051578,0.0516 0.028373,0 0.051578,-0.0232 0.051578,-0.0516 z m 7.2390893,11.1664 c -0.0987,-0.0398 -0.07732,-0.41803 0.03705,-0.65697 0.07693,-0.16072 0.170752,-0.77092 0.387115,-2.51852 0.157053,-1.26854 0.285549,-2.35029 0.285549,-2.40393 0,-0.0692 -0.05499,-0.11146 -0.188614,-0.14534 -0.357446,-0.0906 -0.482188,-0.45817 -0.228863,-0.67438 0.05284,-0.0451 0.15721,-0.1368 0.231974,-0.20381 0.101892,-0.0913 0.222865,-0.13038 0.483299,-0.15595 0.191071,-0.0188 0.389308,-0.0556 0.440536,-0.0821 0.05119,-0.0265 0.236242,-0.071 0.411158,-0.0991 0.353029,-0.0569 0.450588,-0.11327 0.450588,-0.26056 0,-0.0546 -0.237189,-0.55697 -0.527086,-1.11632 -0.519989,-1.0033 -0.527107,-1.02187 -0.528335,-1.37831 -0.0019,-0.51073 0.114221,-1.6521 0.201094,-1.97904 0.04514,-0.1699 0.05674,-0.3185 0.03022,-0.38713 -0.03315,-0.0858 -0.04934,-0.0936 -0.07039,-0.034 -0.02925,0.0829 -0.32103,1.40476 -0.404451,1.83236 -0.02769,0.14193 -0.118394,0.40331 -0.201572,0.58081 -0.08316,0.1775 -0.151223,0.34396 -0.151223,0.3699 0,0.026 0.05763,0.0898 0.128027,0.14181 0.07039,0.052 0.134298,0.1527 0.141951,0.22367 0.02106,0.19582 -0.212658,0.20461 -0.423814,0.0159 -0.221853,-0.19823 -0.249884,-0.45224 -0.113958,-1.03266 0.0585,-0.24987 0.118745,-0.53561 0.133848,-0.63496 l 0.0275,-0.18066 -0.108606,0.20645 c -0.05976,0.11357 -0.197077,0.31822 -0.305224,0.45483 -0.174633,0.22055 -0.218216,0.39684 -0.09814,0.39684 0.02281,0 0.03773,0.0984 0.03315,0.21868 -0.01083,0.28382 -0.133877,0.31575 -0.3451511,0.0896 -0.232909,-0.24932 -0.207471,-0.40444 0.2077921,-1.26678 0.198717,-0.41266 0.361308,-0.77036 0.361308,-0.79487 0,-0.0244 0.09262,-0.36587 0.205871,-0.75858 0.276354,-0.95843 0.272992,-1.0525 -0.05499,-1.53584 -0.288746,-0.42558 -0.7887771,-1.49224 -0.8440701,-1.80057 -0.01941,-0.10804 -0.0069,-0.36453 0.0275,-0.57 0.116708,-0.69453 0.01238,-0.80327 -0.5960779,-0.62098 -0.5212465,0.15618 -0.7013394,0.1569 -0.8455522,0.003 -0.1539043,-0.16383 -0.1414146,-0.386 0.03705,-0.65883 0.1815846,-0.27759 0.2340008,-0.4992 0.1625331,-0.68716 -0.035783,-0.0941 -0.03666,-0.17327 -0.00293,-0.23674 0.082973,-0.15498 0.499504,-0.28527 0.903867,-0.28273 0.493244,0.003 0.7895971,0.16937 1.4219551,0.79777 0.439775,0.43701 0.523957,0.5521 0.773976,1.05812 0.154305,0.31227 0.477324,0.92778 0.717838,1.36781 0.883518,1.61644 1.445023,2.96477 1.448971,3.47941 0.003,0.43052 0.56441,1.38214 1.15924,1.96604 0.636404,0.62471 1.437955,1.04026 1.778534,0.92205 0.209908,-0.0729 0.307818,-0.43991 0.310528,-1.16418 0.002,-0.62762 0.04281,-0.74599 0.200773,-0.58799 0.07079,0.0708 0.08541,0.20176 0.08541,0.76744 0,1.07979 -0.147235,1.32864 -0.784575,1.32603 -0.804632,-0.003 -1.946477,-0.84436 -2.715181,-1.99997 -0.193157,-0.29038 -0.37285,-0.52797 -0.399322,-0.52797 -0.02652,0 -0.08239,0.082 -0.124244,0.18218 -0.04182,0.10017 -0.224124,0.41956 -0.405017,0.70971 -0.180883,0.29015 -0.343308,0.56732 -0.360936,0.61593 -0.01794,0.0496 0.0354,0.23719 0.121505,0.42708 0.180385,0.39785 0.356997,1.09463 0.357504,1.41055 1.95e-4,0.12248 0.05187,0.34254 0.114915,0.48899 0.06639,0.1543 0.115216,0.37539 0.116132,0.52572 7.8e-4,0.14269 0.02486,0.2765 0.05324,0.29737 0.02837,0.0208 0.320152,0.0383 0.648358,0.0387 0.528569,7.7e-4 0.609659,0.0128 0.709724,0.10604 0.0621,0.0579 0.115636,0.14498 0.118902,0.19355 0.02096,0.31187 -0.09107,0.46307 -0.377102,0.50881 -0.109395,0.0174 -0.209948,0.0498 -0.223442,0.0715 -0.01346,0.0219 0.104336,1.10466 0.261858,2.40625 0.227029,1.87591 0.30811,2.40934 0.391112,2.57301 0.07146,0.14091 0.0993,0.2802 0.08765,0.43872 l -0.01696,0.23227 h -0.202752 c -0.18102,0 -0.207501,-0.0166 -0.247066,-0.15484 -0.02437,-0.0852 -0.03101,-0.29421 -0.01463,-0.46454 0.02076,-0.21749 -0.05557,-1.00119 -0.256699,-2.6324 -0.157482,-1.27749 -0.296996,-2.35174 -0.310022,-2.38722 -0.01813,-0.0494 -0.339769,-0.0646 -1.368925,-0.0646 -1.029505,0 -1.350652,0.0151 -1.368271,0.0646 -0.01268,0.0355 -0.151984,1.11506 -0.309621,2.39904 -0.210941,1.7183 -0.27812,2.41997 -0.254456,2.65821 0.04193,0.42227 -0.02652,0.60904 -0.221326,0.60349 -0.07878,-0.002 -0.172254,-0.0158 -0.207744,-0.0302 z m 8.761751,-2.28852 c 0,-2.45266 0.0029,-2.41957 -0.229233,-2.24364 -0.132727,0.10038 -0.282342,0.0962 -0.322735,-0.009 -0.02291,-0.0596 0.05421,-0.16564 0.259701,-0.35689 l 0.292267,-0.27203 -7.7e-4,-0.73993 c -5.17e-4,-0.40697 -0.01785,-0.76372 -0.03871,-0.7928 -0.02086,-0.029 -0.19346,-0.17523 -0.383557,-0.32483 -0.776512,-0.61106 -1.016685,-1.04036 -0.94941,-1.69702 0.100805,-0.98391 0.739736,-1.82692 1.75765,-2.31906 0.197652,-0.0956 0.388451,-0.22612 0.424,-0.29013 0.03559,-0.0639 0.06562,-0.2441 0.06688,-0.40024 0.002,-0.18405 0.06445,-0.46429 0.179107,-0.79683 0.130095,-0.37738 0.163597,-0.53766 0.12676,-0.60648 -0.06552,-0.12249 -0.08093,-0.11922 -0.224669,0.0478 -0.12015,0.13969 -0.123036,0.14023 -0.229799,0.0436 -0.07586,-0.0687 -0.108352,-0.16091 -0.108907,-0.30921 -9.75e-4,-0.26488 -0.0702,-0.39333 -0.162232,-0.30126 -0.0352,0.0352 -0.08483,0.064 -0.110214,0.064 -0.05947,0 -0.01102,-1.37199 0.06289,-1.78074 0.04875,-0.26981 0.06961,-1.20788 0.04144,-1.86702 -0.0069,-0.14817 0.02106,-0.24878 0.08785,-0.3226 0.08863,-0.0979 0.154392,-0.10728 0.753473,-0.10728 0.536193,0 0.74501,0.0236 1.140442,0.12885 0.266234,0.0709 0.658264,0.17518 0.871175,0.23183 0.212922,0.0566 0.473638,0.14128 0.579376,0.18809 l 0.192262,0.0851 0.685212,-0.31475 c 0.612634,-0.28142 0.723463,-0.31573 1.04651,-0.32402 0.479507,-0.0123 0.632933,0.033 0.86865,0.25632 0.280548,0.26585 0.310734,0.3382 0.216841,0.51976 -0.100209,0.19379 -0.100825,0.47023 -0.002,0.7078 0.107172,0.25651 0.09957,0.54956 -0.01696,0.65504 -0.154235,0.13957 -0.384356,0.1 -0.852192,-0.14685 -0.736274,-0.38836 -0.94159,-0.31019 -1.0266,0.39083 -0.04914,0.40533 -0.04047,0.50434 0.115197,1.31416 0.14194,0.73838 0.228199,1.02967 0.549725,1.85649 0.209763,0.53938 0.474174,1.16652 0.587596,1.39362 0.113413,0.22711 0.262432,0.64157 0.331141,0.92101 0.07683,0.31262 0.160933,0.53641 0.218518,0.58172 0.163206,0.12843 0.345745,0.21153 0.543086,0.24725 0.270154,0.0489 0.512784,0.39019 0.327835,0.46116 -0.04476,0.0171 -0.08073,0.1168 -0.09029,0.25025 -0.01257,0.17417 -0.03812,0.22574 -0.119233,0.24041 -0.05674,0.0104 -0.138081,0.0492 -0.180658,0.0864 -0.04261,0.0373 -0.162885,0.0835 -0.267337,0.10297 -0.183583,0.034 -0.190457,0.0299 -0.206457,-0.12597 -0.0087,-0.0887 -0.03978,-0.16644 -0.06815,-0.17282 -0.03403,-0.008 -0.05616,1.38539 -0.06483,4.07894 l -0.01317,4.09053 h -0.154539 -0.154537 v -4.06731 c 0,-3.09465 -0.01482,-4.08213 -0.06192,-4.12925 -0.08941,-0.0894 -5.825753,-0.0894 -5.915141,0 -0.04056,0.0405 -0.06191,0.25454 -0.06191,0.61894 0,0.5542 9.75e-4,0.55816 0.175881,0.78742 0.194923,0.25537 0.305001,0.65209 0.254476,0.91712 -0.03714,0.19482 -0.194094,0.52615 -0.334222,0.70557 -0.09078,0.11624 -0.09614,0.26361 -0.09614,2.6453 v 2.52221 h -0.15485 -0.15485 z m -0.01063,-5.38996 c 0.0087,-0.2426 -0.0078,-0.42829 -0.04271,-0.47053 -0.03189,-0.0384 -0.154801,-0.0769 -0.273244,-0.0854 -0.214218,-0.0156 -0.215349,-0.0167 -0.215349,-0.22213 v -0.20649 l 0.614593,-0.0259 0.614594,-0.0259 -0.01161,-0.73923 c -0.0098,-0.60249 0.0039,-0.76235 0.07039,-0.86433 0.08862,-0.13523 0.06084,-0.38365 -0.0429,-0.38365 -0.137476,0 -0.849745,0.47088 -1.072465,0.70901 -0.533561,0.5705 -0.756184,1.4366 -0.503452,1.95867 0.110331,0.22792 0.70246,0.80354 0.795456,0.77327 0.02837,-0.009 0.0584,-0.19714 0.06679,-0.41757 z m 7.340061,-0.78114 c 0,-0.041 -0.0232,-0.0744 -0.05157,-0.0744 -0.02837,0 -0.05157,0.0478 -0.05157,0.10628 0,0.0585 0.0232,0.0919 0.05157,0.0744 0.02837,-0.0176 0.05157,-0.0654 0.05157,-0.10627 z m -3.200166,-1.95263 c 0,-0.15296 -0.168676,-0.37067 -0.248802,-0.32115 -0.04086,0.0252 -0.01746,0.0993 0.07595,0.24048 0.0743,0.1122 0.143521,0.20398 0.153943,0.20398 0.01043,0 0.01891,-0.0555 0.01891,-0.12331 z m 1.086855,-0.99381 c -0.342616,-0.59711 -0.683672,-1.39468 -0.879707,-2.05723 -0.162425,-0.54894 -0.19849,-0.58472 -0.388918,-0.38596 -0.127228,0.13281 -0.14085,0.17128 -0.08697,0.24589 0.199545,0.27657 0.268429,0.41181 0.268594,0.5273 1.95e-4,0.1211 0.23328,1.13004 0.268087,1.1604 0.0087,0.008 0.113247,0.063 0.232119,0.12292 0.150706,0.0759 0.314507,0.24086 0.541215,0.54475 0.178806,0.23969 0.333861,0.42702 0.344566,0.41632 0.01073,-0.0108 -0.123815,-0.26919 -0.298936,-0.57439 z m -3.741322,-2.74749 c 0.154567,-0.61148 0.342997,-0.97988 0.701086,-1.37066 0.272357,-0.29723 0.508142,-0.73217 0.508142,-0.93733 0,-0.043 -0.07546,-0.10921 -0.167749,-0.14717 -0.191295,-0.0787 -1.214211,-0.2487 -1.274037,-0.21173 -0.02175,0.0134 -0.05314,0.21735 -0.06972,0.45318 -0.01667,0.23583 -0.08979,0.69267 -0.16264,1.01521 -0.07284,0.32254 -0.132376,0.64195 -0.132376,0.70982 0,0.27494 0.365665,1.06275 0.45283,0.97558 0.0158,-0.0158 0.08073,-0.23486 0.144486,-0.4869 z m 6.785196,14.1121 c -0.07488,-0.0902 -0.02788,-0.46065 0.08005,-0.6309 0.05635,-0.0889 0.582136,-3.97658 0.654306,-4.83805 0.01112,-0.13309 -0.0088,-0.1561 -0.168023,-0.19618 -0.353389,-0.0888 -0.485727,-0.47307 -0.241849,-0.70218 0.118414,-0.11125 0.137086,-0.11223 2.118595,-0.11223 h 1.999118 l 0.126691,0.12669 c 0.06972,0.0697 0.126693,0.18452 0.126693,0.2552 0,0.19531 -0.20595,0.40003 -0.441658,0.43901 -0.245096,0.0405 -0.258512,-0.29287 0.107836,2.67967 0.153699,1.24707 0.302865,2.26888 0.337273,2.31034 0.09565,0.11527 0.158379,0.53155 0.0973,0.64571 -0.06054,0.11312 -0.316729,0.13503 -0.398269,0.0341 -0.08395,-0.10397 -0.128496,-0.48555 -0.06951,-0.59572 0.03958,-0.0739 -0.02623,-0.73727 -0.251512,-2.53362 -0.167818,-1.33838 -0.319314,-2.4564 -0.33666,-2.48447 -0.0195,-0.0315 -0.543593,-0.051 -1.369509,-0.051 h -1.337978 l -0.02545,0.11613 c -0.01394,0.0638 -0.154851,1.17834 -0.313015,2.47658 -0.215583,1.76955 -0.27385,2.38609 -0.232734,2.46291 0.05996,0.11212 0.01911,0.50445 -0.06357,0.60921 -0.06972,0.0884 -0.321342,0.0813 -0.398074,-0.0111 z m 8.515096,-4.02229 c 0,-4.54138 0.03101,-4.16057 -0.338737,-4.16057 -0.142711,0 -0.181321,-0.0234 -0.206905,-0.12531 -0.01736,-0.069 -0.01619,-0.17345 0.003,-0.23228 0.03159,-0.0995 0.07274,-0.10696 0.594021,-0.10696 0.654111,0 0.743411,-0.0209 0.670461,-0.15724 -0.06015,-0.11235 -0.0058,-1.43253 0.06094,-1.47362 0.02398,-0.0148 0.04358,-0.24621 0.04358,-0.51422 0,-0.31827 0.0196,-0.48731 0.05646,-0.48731 0.03101,0 0.06864,0.0465 0.08346,0.10324 0.02974,0.11387 0.118191,0.14177 0.118191,0.0374 0,-0.2388 -0.437602,-0.49886 -0.84254,-0.5007 -0.208913,-9.7e-4 -0.246198,-0.0157 -0.231787,-0.0914 0.01326,-0.0696 0.07839,-0.0939 0.284643,-0.10584 0.441344,-0.0256 0.891923,0.27854 0.893619,0.60313 0.002,0.33042 0.116464,0.45963 0.257371,0.28983 0.0354,-0.0426 0.118113,-0.0774 0.183935,-0.0774 0.156937,0 0.206574,-0.0881 0.111023,-0.1968 -0.176377,-0.20085 -0.311191,-0.56237 -0.335381,-0.89934 -0.02555,-0.35562 0.02622,-0.50393 0.175783,-0.50393 0.05441,0 0.07108,0.0957 0.07108,0.40749 0,0.43309 0.152968,1.05261 0.278128,1.12638 0.03774,0.0223 0.105769,0.11008 0.151234,0.19524 l 0.08268,0.15485 0.002,-0.16655 c 0.0039,-0.29261 0.159393,-0.34683 1.028648,-0.35811 0.706254,-0.009 0.751338,-0.0158 0.78867,-0.11674 0.02175,-0.0589 0.07518,-0.10702 0.118678,-0.10702 0.11352,0 0.0999,0.22325 -0.02028,0.33197 -0.08805,0.0797 -0.132776,0.0829 -0.393473,0.0288 -0.188097,-0.0391 -0.458348,-0.048 -0.74966,-0.0249 -0.477605,0.0379 -0.690517,0.12369 -0.581336,0.23448 0.04632,0.047 0.08766,0.0419 0.179235,-0.0224 0.138079,-0.0967 0.863921,-0.11807 1.028023,-0.0302 0.0546,0.0292 0.215301,0.22506 0.357087,0.43518 0.289634,0.42921 0.368618,0.50325 0.349703,0.32779 -0.0097,-0.0906 0.01647,-0.12314 0.110176,-0.13653 0.111521,-0.0159 0.119613,-0.004 0.08658,0.12888 -0.0705,0.28368 -0.05938,0.40074 0.03987,0.4206 0.07683,0.0154 0.09136,-0.009 0.07742,-0.12761 -0.01482,-0.1265 5.17e-4,-0.14656 0.111843,-0.14656 0.139298,0 0.141794,0.0163 0.04183,0.27331 -0.05616,0.14429 -0.05451,0.17742 0.01053,0.21852 0.118093,0.0746 0.181459,0.0274 0.165088,-0.12303 -0.01258,-0.11567 0.0048,-0.13653 0.116133,-0.13653 0.146913,0 0.158321,0.0384 0.06942,0.23354 -0.04982,0.10935 -0.04778,0.14367 0.01044,0.17967 0.09409,0.0582 0.160768,0.0142 0.142838,-0.0945 -0.01016,-0.0616 0.02282,-0.0865 0.114767,-0.0865 0.10258,0 0.125883,0.0229 0.113656,0.11156 -0.02018,0.14678 0.09126,0.21507 0.12717,0.0779 0.04826,-0.18465 0.183486,-0.18415 0.338726,9.7e-4 0.181,0.21612 0.223988,0.37498 0.147147,0.54364 -0.03335,0.0732 -0.04182,0.15191 -0.01882,0.17491 0.02301,0.023 0.285422,0.0485 0.583149,0.0566 l 0.541323,0.0148 v 0.20647 c 0,0.20376 -0.0029,0.20685 -0.218411,0.23563 -0.120121,0.0161 -0.230842,0.0417 -0.246042,0.0568 -0.01521,0.0152 -0.02145,0.64082 -0.01385,1.39027 0.01209,1.19694 0.02252,1.34721 0.08589,1.23579 0.04153,-0.0732 0.07722,-0.30385 0.08415,-0.54477 0.0087,-0.31273 0.04115,-0.47564 0.127766,-0.64736 0.185367,-0.36759 0.542432,-0.8424 0.823516,-1.09513 0.143189,-0.12873 0.260327,-0.25565 0.260327,-0.28205 0,-0.0264 -0.0937,-0.12328 -0.208194,-0.21529 -0.236983,-0.19046 -1.071489,-1.14693 -1.256838,-1.44055 -0.11427,-0.181 -0.56088,-0.47406 -0.722477,-0.47406 -0.03393,0 -0.151652,-0.0458 -0.261535,-0.10181 -0.18138,-0.0925 -0.205336,-0.0943 -0.260043,-0.0195 -0.03754,0.0514 -0.160856,0.0899 -0.32729,0.10222 -0.236214,0.0174 -0.267024,0.008 -0.267024,-0.0798 0,-0.16254 0.247875,-0.41051 0.470167,-0.47037 0.263544,-0.071 0.884299,0.0112 1.239717,0.1641 0.200041,0.0861 0.296391,0.17062 0.426875,0.3746 0.196542,0.30724 0.544628,0.63267 1.19246,1.11487 0.25549,0.19017 0.510725,0.39779 0.567188,0.46137 0.152374,0.1716 0.278237,0.22709 0.36041,0.15889 0.05607,-0.0465 -0.0039,-0.17326 -0.313658,-0.66169 -0.485659,-0.76603 -0.784849,-1.11056 -1.136933,-1.30927 -0.334007,-0.1885 -0.522699,-0.45387 -0.277057,-0.38962 0.05674,0.0148 0.103233,0.006 0.103233,-0.0198 0,-0.10058 -0.214012,-0.25324 -0.354988,-0.25324 -0.169329,0 -0.281211,-0.10639 -0.255227,-0.24269 0.0232,-0.12149 0.206419,-0.14393 0.501201,-0.0614 0.242697,0.0679 0.607622,0.4097 1.354279,1.26826 0.152569,0.17543 0.520155,0.58891 0.816878,0.91885 l 0.539479,0.59988 0.286369,-0.005 c 1.4038,-0.0228 1.793772,2e-4 2.17103,0.12858 0.596556,0.2029 1.045369,0.51689 1.61406,1.12919 0.554231,0.59673 0.757997,0.90399 0.758942,1.14439 5.17e-4,0.0867 -0.08853,0.34217 -0.197604,0.56778 -0.236399,0.48915 -0.29332,0.90345 -0.185903,1.35292 0.03891,0.16282 0.07167,0.36572 0.07284,0.45089 9.75e-4,0.0852 0.04719,0.2289 0.102375,0.31941 0.112368,0.18428 0.81677,0.9102 1.070807,1.10349 0.109074,0.0829 0.170333,0.17808 0.180658,0.28042 0.01355,0.13439 -0.003,0.15696 -0.123153,0.17086 -0.07634,0.009 -0.249805,-0.0217 -0.385505,-0.0677 -0.199818,-0.0678 -0.372949,-0.21085 -0.910527,-0.75208 -0.36508,-0.36756 -0.685174,-0.65508 -0.711324,-0.63892 -0.02613,0.0162 -0.04758,0.1775 -0.04758,0.35854 0,0.37852 0.173747,0.88645 0.484724,1.41705 0.141815,0.24198 0.176681,0.34225 0.133634,0.38437 -0.04281,0.042 -0.115333,-0.0114 -0.273742,-0.20109 -0.118541,-0.14194 -0.273606,-0.31797 -0.344586,-0.39114 -0.07098,-0.0732 -0.185992,-0.259 -0.255577,-0.41293 -0.06961,-0.15393 -0.153846,-0.3147 -0.18727,-0.35728 -0.12441,-0.15854 -0.331413,-0.59643 -0.331413,-0.70111 0,-0.0595 0.03597,-0.22235 0.07985,-0.36171 0.04387,-0.13936 0.102087,-0.49233 0.129275,-0.78438 0.02798,-0.30105 0.0974,-0.65868 0.160242,-0.82585 0.06094,-0.16217 0.121446,-0.40945 0.134434,-0.54951 0.02682,-0.28892 -0.05314,-0.39053 -0.307195,-0.39053 -0.142048,0 -0.144982,0.006 -0.145324,0.29679 -5.16e-4,0.30533 -0.223139,1.19682 -0.405289,1.62178 l -0.100363,0.23415 0.203074,1.64636 c 0.148961,1.20756 0.230149,1.70289 0.304621,1.85847 0.125385,0.26195 0.136032,0.61526 0.01989,0.65983 -0.328811,0.12619 -0.463264,-0.0593 -0.412662,-0.56914 0.0274,-0.27573 -0.207909,-2.57764 -0.306706,-3.00087 -0.02487,-0.10649 -0.06406,-0.0799 -0.426125,0.28972 -0.318408,0.32498 -0.459617,0.42947 -0.700833,0.51856 -0.488155,0.18028 -0.994952,0.22889 -1.641828,0.15745 -0.309593,-0.0342 -0.574637,-0.0504 -0.58899,-0.036 -0.06942,0.0694 -0.229749,1.69218 -0.200246,2.02649 0.01901,0.21576 0.0098,0.41974 -0.02389,0.50638 -0.04933,0.12823 -0.0783,0.14321 -0.249456,0.12902 -0.189793,-0.0157 -0.193986,-0.0206 -0.210668,-0.24828 -0.0117,-0.1592 0.01608,-0.29721 0.08844,-0.43874 0.07635,-0.14953 0.134571,-0.46264 0.211196,-1.13554 0.05821,-0.51099 0.105515,-0.94429 0.105174,-0.96289 -5.17e-4,-0.0186 -0.09935,-0.0919 -0.219991,-0.16283 -0.385408,-0.22671 -0.645383,-0.58913 -0.550184,-0.76701 0.07449,-0.13919 0.118473,-0.12085 0.402715,0.1679 0.404452,0.41089 0.421982,0.38963 0.557215,-0.67584 0.126214,-0.99448 0.141093,-1.23823 0.07556,-1.23823 -0.02408,0 -0.08794,0.0985 -0.14194,0.2189 -0.137837,0.30736 -0.36784,0.55291 -0.618542,0.66037 -0.246794,0.10579 -0.385712,0.28004 -0.537208,0.67385 -0.130699,0.33972 -0.47392,0.73109 -0.73606,0.83927 l -0.193558,0.0799 v 1.49949 1.49947 h -0.154938 -0.15484 v -1.4152 c 0,-0.77836 -0.01414,-1.45195 -0.0313,-1.49685 -0.01726,-0.045 -0.07167,-0.0816 -0.121038,-0.0816 -0.108819,0 -0.260559,-0.15786 -0.260559,-0.27108 0,-0.13646 -0.252029,-0.39242 -0.490067,-0.49771 -0.282965,-0.12517 -0.408818,-0.30656 -0.361667,-0.52125 0.04573,-0.20799 0.168705,-0.28195 0.697137,-0.41923 0.241167,-0.0627 0.467515,-0.14944 0.503005,-0.19288 0.04856,-0.0593 0.06455,-0.47318 0.06455,-1.66737 0,-1.51759 -0.0049,-1.59079 -0.09984,-1.64184 -0.137622,-0.0736 -5.75336,-0.0736 -5.890971,0 -0.0974,0.0521 -0.09984,0.15244 -0.09984,4.12925 v 4.07582 h -0.154851 -0.15484 z m 11.032885,0.95127 c 0.328655,-0.14294 0.79848,-0.62487 1.018099,-1.04434 l 0.152022,-0.29036 -0.06454,-0.5807 c -0.03549,-0.31938 -0.07664,-0.60017 -0.09135,-0.62398 -0.01472,-0.0238 -0.630019,-0.0433 -1.367335,-0.0433 -1.025705,0 -1.346013,0.0151 -1.363728,0.0646 -0.06123,0.17066 -0.322229,2.49608 -0.284487,2.5347 0.0937,0.0959 0.417457,0.1316 1.059302,0.1168 0.563172,-0.0129 0.714561,-0.0344 0.942029,-0.13334 z m 1.467293,-2.40187 c 0.01218,-0.11103 -0.0078,-0.15626 -0.07371,-0.16985 -0.07001,-0.0144 -0.09029,0.0162 -0.09029,0.13589 0,0.22017 0.0546,0.35114 0.107212,0.25713 0.02214,-0.0395 0.04768,-0.13995 0.05685,-0.22317 z m -1.3539,-1.05552 c 0.112994,-0.0714 -0.15955,-0.12609 -0.397665,-0.0796 -0.163479,0.0319 -0.177324,0.044 -0.09,0.0794 0.141532,0.0574 0.397187,0.0575 0.487648,1.9e-4 z M 28.060671,295.014 c -0.0586,-0.0948 -0.106598,-0.21884 -0.106598,-0.27549 0,-0.13129 0.345425,-0.37515 0.531397,-0.37515 0.08288,0 0.164707,-0.0417 0.2032,-0.10323 0.03549,-0.0568 0.09341,-0.10323 0.128789,-0.10323 0.07293,0 0.234332,0.34886 0.192641,0.41631 -0.01492,0.0242 0.0019,0.0908 0.03774,0.14808 0.05129,0.0821 0.05167,0.11737 0.002,0.16727 -0.03481,0.0348 -0.06318,0.11482 -0.06318,0.1779 0,0.10863 -0.02154,0.11481 -0.409549,0.11735 l -0.409561,0.003 -0.106597,-0.17248 z M 2.0043219,276.2092 c -0.050895,-0.0183 -0.064545,-0.87338 -0.064545,-4.04063 0,-2.20962 -0.014137,-4.05423 -0.031297,-4.09914 -0.021645,-0.0564 -0.098007,-0.0816 -0.2477484,-0.0816 -0.2495911,0 -0.3403054,-0.0689 -0.3403054,-0.25808 0,-0.23108 0.07722,-0.25807 0.7384676,-0.25807 0.564995,0 0.6116002,-0.007 0.5776115,-0.0903 -0.05304,-0.12948 -0.028275,-1.40841 0.02925,-1.51601 0.02652,-0.0497 0.048263,-0.28915 0.048263,-0.53231 0,-0.35861 0.014625,-0.44214 0.077415,-0.44214 0.042998,0 0.077415,0.0459 0.077415,0.10323 0,0.0574 0.034417,0.10324 0.077415,0.10324 0.1130029,0 0.095452,-0.0739 -0.062107,-0.26114 -0.1719224,-0.20431 -0.4061378,-0.30664 -0.7018661,-0.30664 -0.2554411,0 -0.3189528,-0.0369 -0.2357656,-0.13719 0.087848,-0.1058 0.4977003,-0.0842 0.7538435,0.0398 0.2664391,0.12898 0.3638128,0.26136 0.417867,0.56808 0.046118,0.26187 0.075075,0.26537 0.5633374,0.0682 0.00683,-0.003 -0.068933,-0.16587 -0.1687047,-0.36235 -0.2248944,-0.44289 -0.2950166,-0.93112 -0.1540018,-1.07215 0.148532,-0.14853 0.208329,-0.0766 0.1901354,0.22898 -0.024667,0.41371 0.1194086,0.97495 0.315862,1.23057 l 0.1644832,0.214 0.04017,-0.155 c 0.05382,-0.20776 0.266293,-0.26154 1.0945097,-0.27702 0.6031176,-0.0113 0.6514389,-0.0198 0.7268358,-0.1274 0.04446,-0.0634 0.1026777,-0.11532 0.1294513,-0.11532 0.07254,0 0.05889,0.29712 -0.015795,0.34463 -0.03549,0.0226 -0.4178865,0.0414 -0.8497935,0.0418 -0.6284872,5.1e-4 -0.8007411,0.0162 -0.8626929,0.0782 -0.051382,0.0514 -0.061717,0.10272 -0.03081,0.15278 0.039975,0.0646 0.061523,0.0619 0.1504821,-0.0186 0.1332049,-0.12054 0.6925059,-0.17099 0.9507552,-0.0858 0.1474886,0.0487 0.2421811,0.14575 0.4591096,0.47061 0.2689547,0.40277 0.369965,0.49775 0.3400714,0.31975 -0.01092,-0.065 0.024765,-0.0948 0.1267798,-0.10665 0.1667255,-0.0192 0.1677005,-0.0154 0.05616,0.21856 -0.070492,0.14785 -0.074002,0.19417 -0.0195,0.25984 0.1016053,0.12241 0.1661015,0.0953 0.1476935,-0.062 -0.014137,-0.12143 0.0039,-0.14431 0.1253464,-0.15829 0.1651266,-0.019 0.1691729,-0.006 0.060743,0.20421 -0.096428,0.18643 -0.06552,0.30247 0.080535,0.30247 0.087165,0 0.1001037,-0.0228 0.073417,-0.12903 -0.028567,-0.114 -0.01599,-0.12904 0.1082644,-0.12904 0.1218657,0 0.1359642,0.0155 0.1055246,0.11613 -0.063862,0.21105 -0.05538,0.26681 0.043485,0.28715 0.070688,0.0146 0.089408,-0.002 0.067568,-0.0588 -0.016673,-0.0434 0.00195,-0.10547 0.04095,-0.13796 0.042413,-0.0352 0.065812,-0.1359 0.057817,-0.24896 -0.012577,-0.17928 -0.022522,-0.18914 -0.1774896,-0.17676 -0.2352781,0.0188 -0.2132138,-0.115 0.040267,-0.24433 0.2847887,-0.14529 0.641913,-0.13282 1.3182534,0.046 0.6831947,0.18064 1.1097302,0.24418 1.1097302,0.1653 0,-0.0305 -0.0899,-0.17415 -0.1997107,-0.31928 -0.2077732,-0.27452 -0.3158816,-0.54793 -0.3172368,-0.80234 -7.704e-4,-0.13987 -0.078,-0.32976 -0.1125349,-0.27639 -0.00878,0.0133 -0.094185,0.17528 -0.1900185,0.35981 -0.095843,0.18451 -0.2337571,0.39937 -0.3064436,0.47744 -0.2564941,0.27551 -0.6256793,0.11812 -0.703075,-0.29974 -0.059475,-0.32127 -0.1789619,-0.52585 -0.3743819,-0.64115 l -0.1807754,-0.10666 0.03705,-0.31956 c 0.028763,-0.2481 0.073222,-0.36383 0.198501,-0.5175 0.3483883,-0.42724 1.309381,-0.68453 2.0704888,-0.55434 0.489899,0.0838 0.7300241,0.24399 1.6138551,1.0767 0.350806,0.3305 0.851392,0.74627 1.112411,0.92393 0.261028,0.17764 0.51524,0.37183 0.564917,0.43154 0.12089,0.14527 0.113821,0.32514 -0.02233,0.56732 -0.111784,0.1989 -0.111979,0.20398 -0.02652,0.68642 0.04739,0.26731 0.15757,0.70291 0.244902,0.96799 0.08736,0.26509 0.176972,0.67003 0.199213,0.89987 0.02223,0.22985 0.05646,0.44383 0.07605,0.47554 0.06201,0.10037 0.40373,0.16408 0.883539,0.16469 1.136395,9.7e-4 1.642471,0.24947 2.016969,0.98851 0.286749,0.56586 0.217027,1.10065 -0.241362,1.85145 -0.329659,0.53993 -0.509858,0.91744 -0.510521,1.0695 -5.17e-4,0.0833 0.05363,0.14123 0.193051,0.20688 0.38067,0.17923 0.142526,0.43156 -0.25277,0.26782 -0.433057,-0.17937 -0.384532,-0.74514 0.132464,-1.54433 0.410388,-0.63439 0.464911,-0.76772 0.464794,-1.13653 -1.08e-4,-0.36528 -0.153495,-0.7433 -0.391688,-0.96533 -0.141591,-0.13197 -0.457297,-0.27344 -0.610216,-0.27344 -0.0899,0 -0.100404,0.0215 -0.06962,0.14194 0.05529,0.21658 0.03354,0.32447 -0.09214,0.45834 -0.07546,0.0803 -0.172887,0.12233 -0.28354,0.12233 -0.09273,0 -0.181877,0.0214 -0.198091,0.0477 -0.01619,0.0263 0.09976,1.11211 0.257722,2.41304 0.21727,1.78933 0.311689,2.41698 0.387749,2.57744 0.05529,0.11667 0.100538,0.30886 0.100538,0.42711 0,0.1833 -0.0195,0.22242 -0.132415,0.26534 -0.286486,0.10891 -0.420314,-0.12933 -0.357056,-0.63565 0.03949,-0.31616 -0.514773,-4.92002 -0.605633,-5.03045 -0.07653,-0.093 -2.585056,-0.0929 -2.662296,1.9e-4 -0.02954,0.0356 -0.183418,1.11681 -0.341944,2.40267 -0.219239,1.77831 -0.28045,2.42168 -0.255713,2.68781 0.0429,0.46127 -0.0192,0.5859 -0.280821,0.56414 -0.179713,-0.0149 -0.191071,-0.0266 -0.206359,-0.21212 -0.0098,-0.11787 0.02427,-0.28283 0.08511,-0.41292 0.07575,-0.16198 0.175959,-0.81144 0.397342,-2.57431 0.162846,-1.29674 0.281416,-2.39594 0.263485,-2.44267 -0.01794,-0.0467 -0.07332,-0.0771 -0.123084,-0.0675 -0.07703,0.0148 -0.09165,0.0826 -0.09805,0.45544 -0.0039,0.24094 -0.04485,0.58077 -0.09029,0.75521 -0.04602,0.17635 -0.08278,0.52133 -0.08278,0.77711 0,0.51532 -0.01063,0.53759 -0.49035,1.03025 -0.1419401,0.14575 -0.3824151,0.40677 -0.5343791,0.58001 -0.1519547,0.17325 -0.3175103,0.315 -0.3678887,0.315 -0.050407,0 -0.11819,0.0321 -0.1506966,0.0711 -0.032467,0.0392 -0.1282519,0.085 -0.212775,0.10191 l -0.1536898,0.0307 v 0.7737 c 0,0.69283 -0.00975,0.7789 -0.093113,0.82353 -0.2032687,0.10878 -0.2144618,0.0331 -0.2286871,-1.54561 l -0.01365,-1.5201 -0.1904572,-0.0158 c -0.1047544,-0.009 -0.2603845,0.0203 -0.3458435,0.0646 -0.1870447,0.0967 -0.3841709,0.10613 -0.3544332,0.0168 0.011602,-0.0349 0.1493315,-0.13835 0.3059853,-0.2299 0.1566635,-0.0915 0.3581285,-0.23489 0.4476923,-0.31856 l 0.1628548,-0.15213 -7.702e-4,-2.18585 c -5.168e-4,-1.20223 -0.019305,-2.21509 -0.042022,-2.25081 -0.032468,-0.0512 -0.6683356,-0.0621 -3.0058189,-0.0516 l -2.9645858,0.0132 -0.01326,4.06308 c -0.012382,3.80437 -0.018915,4.06603 -0.1032237,4.10937 -0.04953,0.0254 -0.1190577,0.0359 -0.154538,0.0232 z m 6.8076207,-2.09207 c 0.1922414,-0.14136 0.7508693,-0.86326 0.8423053,-1.08849 0.171825,-0.42323 0.208885,-1.45358 0.05226,-1.45358 -0.0276,0 -0.08132,0.12776 -0.119381,0.28389 -0.03802,0.15615 -0.09535,0.31552 -0.127237,0.35417 -0.03188,0.0386 -0.2388663,0.17534 -0.4598704,0.30376 l -0.4018184,0.23348 v 0.74146 c 0,0.40779 0.012578,0.74145 0.027885,0.74145 0.015307,0 0.098973,-0.0522 0.1858259,-0.11614 z m -0.07332,-2.04779 c 0.2186056,-0.35005 0.337829,-0.78619 0.4314001,-1.57819 0.053625,-0.45423 0.097939,-0.93711 0.098377,-1.0731 9.75e-4,-0.27123 0.1269642,-0.56469 0.3199862,-0.74475 0.06756,-0.063 0.37754,-0.21018 0.6889371,-0.32709 0.689805,-0.25902 0.703114,-0.26869 0.63578,-0.46183 -0.08892,-0.25501 -0.15408,-0.2726 -0.471472,-0.12731 -0.184032,0.0843 -0.331969,0.12016 -0.412202,0.10007 -0.06883,-0.0172 -0.3014321,-0.0364 -0.5169181,-0.0427 -0.3335288,-0.0103 -0.3952562,0.002 -0.4150976,0.0778 -0.016673,0.0637 -0.087457,0.0937 -0.2483529,0.10528 l -0.2250502,0.0162 -0.013455,2.07753 c -0.0078,1.14262 0.00488,2.07752 0.026325,2.07752 0.02184,0 0.067665,-0.0446 0.1018095,-0.0994 z m 4.2985264,-2.4805 c 0,-0.0639 -0.234001,-0.12519 -0.306765,-0.0802 -0.110195,0.0681 -0.04972,0.13084 0.126107,0.13084 0.09936,0 0.180658,-0.0228 0.180658,-0.0506 z m -4.3615214,-2.27207 c 0.2476997,-0.1303 0.3528635,-0.15479 0.6633433,-0.15455 0.202928,1.6e-4 0.454947,0.0242 0.560032,0.0534 0.1473241,0.0409 0.2329781,0.0356 0.3742071,-0.0234 0.282663,-0.1181 0.233855,-0.21723 -0.165253,-0.33563 -0.8647604,-0.25652 -1.3519306,-0.36534 -1.6387961,-0.36603 -0.3339777,-7.8e-4 -0.8107837,-0.10781 -0.9332441,-0.20943 -0.1056221,-0.0876 -0.1329807,-0.0419 -0.1544113,0.25837 -0.013845,0.19411 -7.702e-4,0.26124 0.050992,0.26124 0.038317,0 0.081803,-0.0465 0.09672,-0.10323 0.033735,-0.129 0.2337766,-0.13827 0.2788217,-0.0128 0.017843,0.0498 0.077415,0.13392 0.1322983,0.18721 0.1001623,0.0972 0.1061193,0.2996 0.015015,0.50959 -0.068933,0.15889 0.3703942,0.11954 0.7202741,-0.0645 z m 10.2765164,8.86145 c -0.0741,-0.0548 -0.08375,-0.47079 -0.09536,-4.1128 l -0.01287,-4.05183 -0.205814,-0.0167 c -0.254251,-0.0206 -0.336151,-0.0849 -0.336151,-0.26313 0,-0.23273 0.07761,-0.26207 0.694221,-0.26226 l 0.570358,-1.5e-4 0.01512,-0.75578 c 0.0087,-0.41568 0.03734,-0.79733 0.06454,-0.8481 0.02721,-0.0508 0.04944,-0.29128 0.04944,-0.53444 0,-0.3586 0.01462,-0.44213 0.07741,-0.44213 0.09906,0 0.09764,-0.0161 -0.02203,-0.25075 -0.1295,-0.25383 -0.455853,-0.54596 -0.699926,-0.6265 -0.106432,-0.0351 -0.294373,-0.0525 -0.417633,-0.0386 -0.12327,0.0138 -0.235726,0.0136 -0.249903,-5.2e-4 -0.01413,-0.0142 0.0087,-0.0925 0.0509,-0.17409 0.0663,-0.12826 0.10653,-0.1483 0.297503,-0.1483 0.13536,0 0.326948,0.0528 0.495087,0.13668 0.317169,0.15805 0.580712,0.51665 0.778491,1.05927 0.06552,0.17968 0.136033,0.34611 0.156752,0.36982 0.02067,0.0237 0.108859,0.006 0.195878,-0.0387 0.08697,-0.0451 0.205824,-0.0818 0.264012,-0.0818 0.134608,0 0.133243,-0.0124 -0.02828,-0.25636 -0.142429,-0.21522 -0.190701,-0.51828 -0.08833,-0.5544 0.03724,-0.0131 0.07595,0.056 0.09812,0.17515 0.04914,0.26481 0.193967,0.59519 0.299063,0.6824 0.0471,0.0391 0.09097,0.062 0.09741,0.0509 0.0069,-0.0111 0.03705,-0.0661 0.06805,-0.12217 0.07596,-0.13716 0.333042,-0.18337 1.100155,-0.19774 0.607096,-0.0114 0.643083,-0.018 0.691794,-0.12715 0.0666,-0.1493 0.190682,-0.14866 0.189658,9.7e-4 -0.0019,0.25888 -0.04192,0.27098 -0.898738,0.27098 -0.691892,0 -0.812237,0.0122 -0.890042,0.09 -0.06933,0.0693 -0.07596,0.10401 -0.02886,0.15104 0.04699,0.047 0.08482,0.0396 0.1642,-0.0322 0.0704,-0.0636 0.21569,-0.1014 0.457501,-0.11869 0.492025,-0.0352 0.640469,0.0466 0.963635,0.53091 0.234381,0.35127 0.393073,0.50455 0.316934,0.30614 -0.03423,-0.0893 0.082,-0.15374 0.197429,-0.10944 0.06444,0.0247 0.06338,0.0515 -0.0078,0.19402 -0.05313,0.10658 -0.06601,0.19146 -0.03608,0.23888 0.06845,0.10859 0.149526,0.081 0.150355,-0.0512 5.16e-4,-0.0871 0.03529,-0.11946 0.14194,-0.1318 0.165722,-0.0192 0.16502,-0.0215 0.05909,0.19103 -0.09702,0.19445 -0.06572,0.31565 0.08151,0.31565 0.08707,0 0.100118,-0.0228 0.07342,-0.12904 -0.02837,-0.11295 -0.0156,-0.12904 0.102252,-0.12904 0.140985,0 0.177207,0.0916 0.07615,0.19267 -0.03217,0.0321 -0.04446,0.0948 -0.0274,0.13936 0.0431,0.11242 0.197575,0.10426 0.178485,-0.0103 -0.01111,-0.066 0.0196,-0.0903 0.11387,-0.0903 0.104198,0 0.125931,0.0224 0.112895,0.11614 -0.02047,0.14725 0.122013,0.15872 0.160144,0.0128 0.03374,-0.12901 0.233349,-0.13821 0.279963,-0.0128 0.01853,0.0498 0.07878,0.15234 0.134063,0.22812 0.09633,0.13215 0.0973,0.23484 0.0048,0.4768 -0.02701,0.0705 0.02087,0.0822 0.335284,0.0822 0.201758,0 0.366826,-0.0213 0.366826,-0.0474 0,-0.0261 -0.104521,-0.16985 -0.232265,-0.31951 -0.340121,-0.39847 -0.319685,-0.49918 0.164268,-0.80973 0.252857,-0.16226 0.739003,-0.67741 0.739003,-0.7831 0,-0.0684 -0.388294,-0.5731 -0.758289,-0.98572 -0.299346,-0.33384 -0.36858,-0.54793 -0.284418,-0.8795 0.04953,-0.19514 0.04377,-0.21705 -0.08433,-0.32096 -0.29995,-0.24326 -0.672568,-0.64995 -0.8094,-0.88344 -0.389737,-0.66504 -0.364885,-1.61328 0.0585,-2.23273 0.295143,-0.43178 0.690107,-0.68223 1.249476,-0.79229 0.622657,-0.1225 1.175991,9.8e-4 1.884429,0.42163 0.692506,0.41087 1.162731,0.9758 1.528288,1.83606 0.168013,0.39539 0.189063,0.50649 0.10573,0.55799 -0.135379,0.0837 -0.25903,-0.0587 -0.533259,-0.61413 -0.236711,-0.47943 -0.353536,-0.64958 -0.645793,-0.94062 -0.615676,-0.61311 -1.213743,-0.89728 -1.888388,-0.89728 -0.529055,0 -0.910253,0.14457 -1.221504,0.46326 -0.291262,0.29823 -0.407629,0.61437 -0.40757,1.10731 4.8e-5,0.48494 0.194338,0.90657 0.600446,1.30306 0.275155,0.26864 0.302709,0.28283 0.503404,0.25919 0.116767,-0.0138 0.340052,-0.0731 0.496189,-0.13199 0.634883,-0.23925 1.746924,-0.0912 2.65821,0.35368 0.540855,0.2641 1.233604,0.79241 1.608727,1.22688 0.165214,0.19135 0.497974,0.55928 0.739452,0.81764 0.548031,0.58631 0.682259,0.84284 0.712065,1.36085 0.02204,0.38351 0.01891,0.39543 -0.228551,0.86284 -0.30422,0.57465 -0.716169,1.02963 -0.976426,1.07847 -0.09839,0.0185 -0.191988,0.0547 -0.207969,0.0807 -0.04281,0.0693 -0.548557,-0.008 -0.653701,-0.0992 -0.04973,-0.0433 -0.09029,-0.12521 -0.09029,-0.182 0,-0.15394 -0.237131,-0.43573 -0.464121,-0.55153 -0.237297,-0.12105 -0.361726,-0.28212 -0.361726,-0.46823 0,-0.15885 0.110848,-0.27154 0.376097,-0.38236 0.246208,-0.10288 0.245331,-0.15188 -0.0019,-0.10548 -0.10645,0.02 -0.374626,0.0546 -0.595922,0.077 -0.221306,0.0223 -0.416384,0.0546 -0.433516,0.0717 -0.01716,0.0171 0.03978,0.16511 0.126381,0.32885 0.08658,0.16374 0.264723,0.55445 0.395773,0.86821 0.197682,0.47333 0.285471,0.61712 0.515348,0.84415 0.255198,0.25202 0.314682,0.28341 0.753151,0.39729 0.261847,0.0679 0.549629,0.12366 0.639534,0.12366 0.0899,0 0.209284,0.0318 0.265279,0.0707 0.05597,0.0389 0.25044,0.0812 0.432082,0.0942 0.264841,0.0188 0.349207,0.0469 0.425833,0.14148 0.220731,0.27259 0.03636,0.67433 -0.309417,0.67433 -0.101779,0 -0.177821,0.0307 -0.196493,0.0793 -0.01677,0.0437 0.103215,1.15274 0.266586,2.46464 0.222428,1.78608 0.317724,2.40902 0.379374,2.47981 0.05421,0.0622 0.08268,0.19452 0.08346,0.38712 l 9.75e-4,0.29259 -0.190184,0.0158 c -0.260463,0.0217 -0.322755,-0.10181 -0.278646,-0.55253 0.02535,-0.25926 -0.03597,-0.90234 -0.256378,-2.68905 -0.159354,-1.29158 -0.313902,-2.37743 -0.343455,-2.41304 -0.07722,-0.093 -2.585757,-0.0933 -2.662247,-1.9e-4 -0.02915,0.0355 -0.184344,1.10973 -0.344819,2.38723 -0.220322,1.75383 -0.283794,2.40486 -0.259176,2.6582 0.01921,0.19784 0.0099,0.39502 -0.02271,0.48057 -0.04894,0.1283 -0.07771,0.1432 -0.248977,0.12903 -0.188166,-0.0155 -0.194094,-0.0223 -0.209577,-0.23659 -0.01034,-0.14225 0.02076,-0.298 0.08766,-0.43873 0.07985,-0.16826 0.169367,-0.75908 0.391268,-2.5827 0.158243,-1.3005 0.27423,-2.38636 0.257742,-2.41303 -0.01647,-0.0267 -0.08775,-0.0485 -0.158311,-0.0485 -0.07059,0 -0.187785,-0.0595 -0.260443,-0.1321 -0.133556,-0.13356 -0.135428,-0.15561 -0.04573,-0.5389 0.02721,-0.11619 -0.0078,-0.15169 -0.354385,-0.35634 -0.211516,-0.12502 -0.448667,-0.27842 -0.526999,-0.34086 l -0.142408,-0.11356 0.08336,-0.37974 c 0.09155,-0.41717 0.07625,-0.51083 -0.06288,-0.38491 -0.07937,0.0717 -0.120141,0.0742 -0.301599,0.0176 -0.124702,-0.0389 -0.219999,-0.10431 -0.234868,-0.16117 -0.01716,-0.0657 -0.06259,-0.0904 -0.144915,-0.0787 l -0.119905,0.0169 -0.01287,4.05182 c -0.01161,3.64202 -0.02126,4.05799 -0.09536,4.1128 -0.231515,0.17121 -0.227264,0.2462 -0.227264,-4.01088 0,-2.20895 -0.01413,-4.05301 -0.03129,-4.09791 -0.02808,-0.0731 -0.340891,-0.0816 -3.003567,-0.0816 -2.321521,0 -2.981199,0.0142 -3.013199,0.0645 -0.02253,0.0355 -0.04134,1.87956 -0.04173,4.09793 -7.71e-4,4.27518 0.0039,4.1992 -0.228053,4.02799 z m 9.879379,-6.73393 c 0,-0.0808 -1.357117,-1.71815 -1.409552,-1.70067 -0.101226,0.0338 -0.300594,0.7209 -0.265524,0.91518 0.04124,0.22853 0.08532,0.28007 0.424566,0.4971 0.26444,0.16917 0.353087,0.1928 1.211803,0.32287 0.02126,0.003 0.0387,-0.0123 0.0387,-0.0345 z m -2.293949,-2.16622 c 0.01686,-0.0781 0.07683,-0.30118 0.133166,-0.49581 0.05635,-0.19462 0.08951,-0.36678 0.07371,-0.38255 -0.03257,-0.0325 -0.523011,0.2195 -0.664007,0.34127 -0.157813,0.13631 -0.09496,0.36825 0.144447,0.5333 0.257938,0.17778 0.274942,0.17799 0.312645,0.004 z m 1.681481,-1.25985 c 0.222253,-0.0666 0.248294,-0.13817 0.0993,-0.27301 -0.188508,-0.17061 -0.486185,0.0236 -0.396086,0.25838 0.03442,0.0898 0.04437,0.0903 0.296791,0.0147 z m -8.265416,-0.96948 c 0,-0.0267 -0.02321,-0.0629 -0.05157,-0.0805 -0.02838,-0.0175 -0.05158,0.004 -0.05158,0.0485 0,0.0442 0.0232,0.0805 0.05158,0.0805 0.02837,0 0.05157,-0.0219 0.05157,-0.0485 z m 15.601137,11.15518 c -0.05011,-0.0318 -0.06708,-0.93437 -0.07742,-4.11555 l -0.01326,-4.07478 -0.258073,-0.0259 c -0.257615,-0.0258 -0.258103,-0.0262 -0.274552,-0.22702 -0.01033,-0.12609 0.0087,-0.21733 0.05157,-0.24439 0.03744,-0.0237 0.323585,-0.0435 0.635859,-0.0439 l 0.567773,-7.8e-4 -0.01784,-0.72411 c -0.01443,-0.58513 -0.003,-0.74724 0.06104,-0.84461 0.06074,-0.0928 0.07225,-0.20912 0.04992,-0.50435 -0.02369,-0.31282 -0.01346,-0.3994 0.05509,-0.46793 0.122041,-0.12204 0.106002,-0.19089 -0.111326,-0.47783 -0.269667,-0.35605 -0.521461,-0.48918 -0.927218,-0.49025 -0.332057,-7.8e-4 -0.366875,-0.0282 -0.26917,-0.2107 0.04134,-0.0773 0.108294,-0.0996 0.296791,-0.0987 0.603869,0.003 1.046072,0.46308 1.350234,1.4054 0.06738,0.20871 0.127209,0.23286 0.283706,0.1145 0.05508,-0.0418 0.153827,-0.0758 0.219366,-0.0758 0.143716,0 0.150463,-0.0675 0.02496,-0.25011 -0.157696,-0.2293 -0.23749,-0.47114 -0.175812,-0.53282 0.07166,-0.0716 0.166794,-0.0103 0.166794,0.10848 0,0.16136 0.153426,0.53725 0.26989,0.66121 l 0.11155,0.11874 0.107261,-0.13451 c 0.09873,-0.12384 0.152286,-0.1382 0.673835,-0.18086 0.31163,-0.0255 0.672119,-0.0327 0.801092,-0.0162 0.215866,0.0277 0.239372,0.0194 0.295688,-0.10416 0.108762,-0.23873 0.271207,-0.12869 0.170158,0.11525 l -0.05802,0.14007 -0.821801,-9.7e-4 c -0.850467,-9.8e-4 -0.979489,0.0283 -0.910235,0.20877 0.03149,0.082 0.04065,0.0817 0.13652,-0.005 0.134658,-0.12186 0.839235,-0.16559 1.030608,-0.0639 0.07098,0.0377 0.247943,0.24103 0.393278,0.45189 0.269842,0.39147 0.395276,0.5054 0.345063,0.31337 -0.02301,-0.0881 -0.0039,-0.10617 0.113315,-0.10617 0.122558,0 0.136355,0.0152 0.105086,0.11614 -0.0858,0.2769 -0.09087,0.36093 -0.02428,0.4021 0.104091,0.0643 0.15566,0.007 0.120267,-0.13428 -0.0274,-0.10933 -0.01394,-0.12588 0.103038,-0.12588 0.155338,0 0.165556,0.0485 0.05508,0.26216 -0.09096,0.17602 -0.06386,0.25399 0.08863,0.25399 0.08181,0 0.09982,-0.0244 0.07839,-0.10638 -0.0312,-0.1192 0.06834,-0.18217 0.205063,-0.12971 0.06562,0.0251 0.07176,0.0474 0.02584,0.0933 -0.08766,0.0876 -0.07556,0.29768 0.01716,0.29768 0.04299,0 0.07742,-0.0459 0.07742,-0.10323 0,-0.0764 0.03442,-0.10323 0.132289,-0.10323 0.10607,0 0.12908,0.0221 0.116132,0.11133 -0.02087,0.1439 0.09107,0.18403 0.127286,0.0457 0.04212,-0.161 0.201475,-0.12588 0.366358,0.0808 0.132377,0.1659 0.145198,0.21385 0.1182,0.44185 l -0.03033,0.25575 0.165692,-0.016 c 0.157414,-0.0152 0.164854,-0.0257 0.148961,-0.20767 -0.02214,-0.25337 0.174917,-1.04011 0.332058,-1.32596 0.06873,-0.12497 0.115235,-0.2369 0.103398,-0.24873 -0.0118,-0.0118 -0.157336,0.003 -0.32335,0.0325 -0.259585,0.0465 -0.328752,0.0849 -0.494005,0.27334 -0.151807,0.17323 -0.205453,0.20597 -0.25549,0.15592 -0.09975,-0.0998 -0.183534,-0.0746 -0.218742,0.0657 -0.03334,0.13279 -0.18526,0.18266 -0.18526,0.0609 0,-0.12783 0.171991,-0.57656 0.274522,-0.71623 0.07254,-0.0989 0.208495,-0.17144 0.468723,-0.25024 0.404451,-0.12247 1.00789,-0.49305 1.105147,-0.67868 0.190555,-0.36373 0.368893,-1.0958 0.420676,-1.72692 0.02993,-0.36473 0.06738,-0.74701 0.08316,-0.84952 0.02242,-0.14555 -1.08e-4,-0.22885 -0.102892,-0.38033 -0.137514,-0.20264 -0.235551,-0.48713 -0.236039,-0.68498 -5.17e-4,-0.12746 -0.114973,-0.15564 -0.210016,-0.0516 -0.03246,0.0355 -0.167623,0.24986 -0.300437,0.47638 -0.160272,0.27334 -0.293028,0.43673 -0.39472,0.48581 -0.08424,0.0406 -0.192427,0.0928 -0.24033,0.11563 -0.110155,0.0527 -0.291906,-0.22205 -0.336015,-0.50792 -0.04329,-0.28033 -0.13766,-0.44229 -0.354043,-0.60733 l -0.189658,-0.14467 0.03579,-0.36291 c 0.03393,-0.34418 0.04817,-0.37546 0.27694,-0.60539 0.132649,-0.13335 0.310734,-0.25901 0.395744,-0.27925 0.08502,-0.0202 0.18723,-0.0639 0.227176,-0.097 0.03997,-0.0331 0.202664,-0.0612 0.361599,-0.0622 0.158936,-9.7e-4 0.439571,-0.0444 0.623632,-0.0966 0.445703,-0.126 0.843671,-0.0904 1.185926,0.10623 0.421046,0.24182 1.545917,1.14298 2.016902,1.61578 0.739336,0.74219 1.575001,2.11031 1.697627,2.77928 0.216539,1.18126 0.343065,1.71318 0.566419,2.38121 0.44233,1.32297 1.004517,2.14975 1.702171,2.50329 0.347218,0.17594 0.619809,0.17162 1.016656,-0.0161 0.389806,-0.18439 0.588034,-0.41897 0.801413,-0.94833 0.181867,-0.45117 0.346507,-0.61847 0.490808,-0.49871 0.118608,0.0984 0.06679,0.3858 -0.152832,0.84837 -0.228064,0.48022 -0.571001,0.8536 -0.925678,1.00782 -0.350037,0.1522 -0.967028,0.19364 -1.227462,0.0825 -0.323476,-0.13813 -0.815921,-0.54894 -1.112761,-0.92831 -0.465964,-0.59552 -1.030257,-1.85248 -1.308738,-2.91519 -0.03374,-0.12856 -0.08385,-0.21419 -0.118755,-0.20256 -0.06298,0.0209 -0.442672,1.17437 -0.445811,1.35435 -9.75e-4,0.0568 0.114456,0.30066 0.256543,0.54197 0.238359,0.4048 0.317754,0.61195 0.534155,1.39361 0.0432,0.15615 0.18568,0.44648 0.316555,0.6452 0.179128,0.27197 0.23131,0.39479 0.211059,0.49674 -0.01852,0.0934 0.01229,0.18855 0.09954,0.30681 0.06951,0.0943 0.126438,0.22601 0.126438,0.29275 0,0.16851 -0.220262,0.37475 -0.400247,0.37475 -0.08083,0 -0.169992,0.0231 -0.198238,0.0514 -0.07079,0.0708 0.516128,4.82302 0.614262,4.97389 0.09213,0.14164 0.153933,0.47274 0.112554,0.60312 -0.02457,0.0775 -0.07888,0.10099 -0.234049,0.10099 -0.215019,0 -0.20011,0.0209 -0.285882,-0.40108 -0.01306,-0.0644 9.75e-4,-0.16383 0.03159,-0.22082 0.04192,-0.0783 -0.01521,-0.68601 -0.233805,-2.48939 -0.159092,-1.31218 -0.310734,-2.43804 -0.336981,-2.5019 l -0.04777,-0.11614 h -1.314256 c -0.810598,0 -1.326346,0.0196 -1.345797,0.0511 -0.01735,0.0281 -0.170022,1.1555 -0.339273,2.50539 -0.234157,1.8676 -0.294392,2.47928 -0.25195,2.55859 0.05002,0.0934 0.03861,0.25941 -0.03588,0.52398 -0.03139,0.11159 -0.338356,0.12502 -0.426623,0.0187 -0.07332,-0.0884 -0.02106,-0.48728 0.07888,-0.60278 0.09526,-0.11003 0.694884,-4.89999 0.624733,-4.99038 -0.0276,-0.0355 -0.09057,-0.0645 -0.14003,-0.0645 -0.04944,0 -0.151146,-0.0481 -0.225948,-0.10697 -0.183769,-0.14456 -0.186937,-0.41456 -0.0069,-0.59453 0.07098,-0.071 0.129042,-0.16282 0.129042,-0.20411 0,-0.0557 0.06708,-0.075 0.261057,-0.075 0.330575,0 1.275958,-0.19146 1.429355,-0.28949 0.06386,-0.0408 0.116133,-0.10699 0.116133,-0.14706 0,-0.04 -0.201748,-0.55634 -0.448336,-1.14727 -0.393843,-0.94378 -0.448366,-1.11203 -0.44855,-1.38408 -1.95e-4,-0.4007 0.154586,-1.57545 0.252788,-1.91772 0.04202,-0.14631 0.07634,-0.44128 0.07634,-0.65547 0,-0.38098 -0.0039,-0.39231 -0.172624,-0.52112 -0.09497,-0.0725 -0.190935,-0.13166 -0.213311,-0.13166 -0.02232,0 -0.180444,0.15253 -0.351274,0.33896 -0.170831,0.18643 -0.547972,0.53421 -0.838094,0.77282 -0.41579,0.34198 -0.572639,0.50984 -0.740681,0.79269 -0.117254,0.19737 -0.213243,0.37802 -0.213321,0.40144 -4.9e-5,0.0234 -0.08034,0.17558 -0.178319,0.33808 -0.09799,0.16253 -0.204808,0.39442 -0.237364,0.51531 -0.03257,0.12088 -0.114904,0.32974 -0.182988,0.46412 -0.154909,0.30567 -0.154402,0.34134 0.0058,0.38144 0.163468,0.041 0.386959,0.30296 0.386959,0.45353 0,0.16519 -0.09672,0.23863 -0.314497,0.23863 -0.126195,0 -0.201202,0.0276 -0.22195,0.0816 -0.01726,0.0448 -0.03129,1.88896 -0.03129,4.09792 0,4.25707 0.0039,4.18207 -0.227263,4.01086 -0.0741,-0.0548 -0.08376,-0.47078 -0.09535,-4.1128 l -0.01287,-4.05183 h -2.993622 -2.993709 l -0.01326,4.07479 c -0.01306,4.03738 -0.01784,4.15633 -0.167437,4.15633 -0.01423,0 -0.0547,-0.0184 -0.09,-0.0407 z m 11.690614,-6.88041 c 0.06387,-0.0235 0.115334,-0.0724 0.114359,-0.10857 -0.002,-0.0892 -0.630701,-0.98204 -0.709579,-1.00834 -0.101348,-0.0338 -0.07654,0.44764 0.04095,0.79251 0.05713,0.16768 0.114642,0.33447 0.127911,0.37066 0.02408,0.0656 0.163801,0.0505 0.426398,-0.0462 z M 36.505893,264.9844 c -0.01648,-0.0412 -0.02866,-0.0289 -0.0312,0.0312 -0.002,0.0544 0.01,0.0849 0.0271,0.0677 0.01716,-0.0171 0.01902,-0.0617 0.0039,-0.0989 z m 7.635964,-1.934 c 0.03237,-0.12743 -0.07312,-0.36092 -0.132991,-0.29424 -0.05343,0.0595 -0.151456,0.47153 -0.11971,0.50327 0.04797,0.0479 0.224513,-0.098 0.252701,-0.20903 z M 2.9978993,258.32797 c -0.1987155,-0.0254 -0.4401069,-0.0679 -0.5364177,-0.0946 -0.1145239,-0.0316 -0.2096842,-0.0299 -0.2750193,0.005 -0.1722928,0.0923 -0.2463639,0.0184 -0.2503029,-0.24965 -0.00195,-0.13575 -0.022133,-0.29326 -0.044752,-0.35004 -0.0351,-0.0881 -0.049725,-0.0729 -0.099314,0.10323 -0.03198,0.11356 -0.058305,0.23551 -0.058403,0.27099 -5.167e-4,0.12754 -0.089602,0.0612 -0.1383432,-0.10324 l -0.049725,-0.16775 -0.1392305,0.27099 c -0.1370367,0.2667 -0.203493,0.32136 -0.2666147,0.21923 -0.021353,-0.0346 -0.064058,-0.0346 -0.1286907,0 -0.13648104,0.073 -0.20673004,0.0643 -0.20673004,-0.0257 0,-0.0426 -0.02574,-0.0774 -0.057135,-0.0774 -0.031395,0 -0.044362,-0.0333 -0.028665,-0.0741 0.015698,-0.0407 7.702e-4,-0.084 -0.03315,-0.0958 -0.09087,-0.032 0.08151,-0.30968 0.43934634,-0.7075 0.344888,-0.38341 0.3494023,-0.39651 0.5327127,-1.54846 0.074587,-0.46841 0.1686073,-0.98277 0.2090213,-1.143 0.057428,-0.22764 0.073515,-0.73732 0.073515,-2.33139 0,-1.12203 -0.014137,-2.07679 -0.031297,-2.12169 -0.021645,-0.0565 -0.098007,-0.0816 -0.2477484,-0.0816 -0.2495912,0 -0.3403055,-0.0689 -0.3403055,-0.25809 0,-0.23108 0.07722,-0.25807 0.7384677,-0.25807 0.564995,0 0.6116002,-0.007 0.5776115,-0.0904 -0.05304,-0.12947 -0.028275,-1.40842 0.02925,-1.51601 0.02652,-0.0496 0.048262,-0.2845 0.048262,-0.52199 0,-0.26148 0.023888,-0.45567 0.060548,-0.49235 0.078195,-0.0782 0.00683,-0.24165 -0.2193952,-0.49875 -0.2410989,-0.27459 -0.4996309,-0.39044 -0.8713996,-0.39044 -0.1714642,0 -0.3117477,-0.0181 -0.3117477,-0.0401 0,-0.0221 0.036173,-0.0918 0.08034,-0.15484 0.1129542,-0.16127 0.4400093,-0.15397 0.7840588,0.0174 0.3121571,0.15555 0.5629865,0.49584 0.7669573,1.0405 0.072052,0.19248 0.149936,0.36935 0.1729948,0.39306 0.023107,0.0237 0.1131394,0.006 0.2001585,-0.0387 0.08697,-0.0451 0.2058135,-0.0818 0.2640017,-0.0818 0.1346089,0 0.1332536,-0.0124 -0.028275,-0.25636 -0.1372026,-0.20734 -0.1917442,-0.51778 -0.096915,-0.55154 0.029153,-0.0104 0.094088,0.14095 0.1444468,0.33626 0.101439,0.39376 0.3079256,0.66448 0.3980842,0.5219 0.026422,-0.0419 0.048457,-0.0927 0.048847,-0.11279 0.00195,-0.0817 0.4452157,-0.14732 1.058259,-0.15664 0.6131016,-0.0103 0.6529891,-0.0164 0.7259193,-0.12761 0.042413,-0.0648 0.09985,-0.11776 0.1275792,-0.11776 0.073808,0 0.06162,0.29644 -0.01404,0.34461 -0.03549,0.0226 -0.4178963,0.0414 -0.8498033,0.0418 -0.6284872,5.8e-4 -0.8007314,0.0162 -0.8626928,0.0782 -0.051382,0.0514 -0.061815,0.10273 -0.03081,0.15279 0.03978,0.0642 0.062692,0.0609 0.1557275,-0.0234 0.087165,-0.0789 0.1899014,-0.0992 0.5108823,-0.10119 0.2397144,-9.8e-4 0.4537081,0.0252 0.530558,0.0662 0.070785,0.0378 0.2415473,0.24097 0.379364,0.45164 0.2265226,0.34628 0.3930532,0.50675 0.3151212,0.30366 -0.034612,-0.0902 0.082388,-0.15357 0.2000122,-0.10844 0.067957,0.0261 0.066885,0.0517 -0.00877,0.2095 -0.070493,0.14776 -0.073905,0.19407 -0.019402,0.25972 0.1016053,0.12243 0.1660918,0.0953 0.1476936,-0.062 -0.014235,-0.12141 0.0039,-0.14431 0.1253464,-0.15828 0.1651265,-0.019 0.1691729,-0.006 0.060742,0.20422 -0.096427,0.18643 -0.06552,0.30247 0.080535,0.30247 0.087165,0 0.1001038,-0.0228 0.073418,-0.12904 -0.028665,-0.114 -0.01599,-0.12904 0.1082644,-0.12904 0.1218657,0 0.1359642,0.0155 0.1055246,0.11614 -0.063375,0.20963 -0.055575,0.26677 0.039292,0.28632 0.067275,0.0138 0.089018,-0.008 0.077415,-0.0754 -0.011992,-0.0703 0.020963,-0.099 0.1276475,-0.11125 0.1312355,-0.015 0.1409172,-0.005 0.1105459,0.11613 -0.02457,0.0981 -0.01326,0.13265 0.04368,0.13265 0.042315,0 0.089115,-0.0464 0.1039938,-0.10323 0.033735,-0.12901 0.2337766,-0.13826 0.278812,-0.0128 0.017843,0.0498 0.077415,0.13393 0.132308,0.18721 0.1001715,0.0972 0.1061193,0.2996 0.015015,0.5096 -0.03588,0.0828 0.00585,0.0903 0.5019708,0.0903 0.6068227,0 0.6750633,0.0337 0.6476559,0.31922 -0.015503,0.16144 -0.029543,0.17258 -0.2486942,0.19694 l -0.232275,0.0259 -0.01326,3.85826 -0.01326,3.85827 h 0.2617981 c 0.3903525,0 0.581814,0.14557 0.3951885,0.30046 -0.1032529,0.0857 -0.673903,0.16639 -1.3531489,0.19135 -3.5316967,0.12979 -4.3354116,0.14099 -4.9034779,0.0682 z m 3.8336942,-0.46975 c -0.038805,-0.12336 -0.3698286,-0.24501 -0.6669902,-0.2451 -0.2245335,-5e-5 -0.3597568,-0.036 -0.5882878,-0.15617 -0.2501664,-0.1316 -0.3107142,-0.14577 -0.3858284,-0.0903 -0.049042,0.0362 -0.2313976,0.16535 -0.4053187,0.28706 -0.1739212,0.1217 -0.3162131,0.23203 -0.3162131,0.24518 0,0.0131 0.5361544,0.0239 1.1914543,0.0239 0.9295781,0 1.1870082,-0.0143 1.1711839,-0.0645 z m -3.6670174,-0.0184 c -0.01716,-0.0171 -0.06162,-0.019 -0.098924,-0.004 -0.041145,0.0165 -0.028957,0.0286 0.0312,0.0312 0.054405,0.002 0.084922,-0.0103 0.067763,-0.0271 z m 5.0723192,-0.22995 c 0,-0.0267 -0.05811,-0.0485 -0.1290418,-0.0485 -0.1469038,0 -0.1752764,0.0851 -0.038708,0.11618 0.1067532,0.0242 0.1677494,-5.2e-4 0.1677494,-0.0675 z m -5.8841851,-0.12598 c 0,-0.0392 -0.023205,-0.0857 -0.051578,-0.10324 -0.029348,-0.0182 -0.051578,0.0264 -0.051578,0.10324 0,0.077 0.02223,0.12139 0.051578,0.10323 0.028372,-0.0176 0.051578,-0.0639 0.051578,-0.10323 z m 5.8962946,-0.30395 c 0.051675,-0.0782 0.048458,-7.00889 -0.00292,-7.09042 -0.032467,-0.0512 -0.6683454,-0.0621 -3.0058188,-0.0516 l -2.9645956,0.0132 -0.013552,1.81946 c -0.00975,1.24144 0.0039,1.81945 0.040462,1.81945 0.029738,0 0.3098367,-0.17447 0.6225007,-0.3877 0.3126545,-0.21325 0.7241449,-0.46622 0.9144169,-0.56217 0.1902718,-0.096 0.4902219,-0.28079 0.6665416,-0.41075 0.1763196,-0.12996 0.5088835,-0.33096 0.7390234,-0.44668 0.3299607,-0.16589 0.4296937,-0.24268 0.4717066,-0.3632 0.036173,-0.10369 0.097208,-0.16161 0.1900575,-0.18011 0.07527,-0.015 0.2081145,-0.0498 0.2952993,-0.0771 0.087165,-0.0274 0.3179291,-0.0499 0.5127641,-0.0499 0.4028519,0 0.6786511,0.10721 0.9445346,0.36717 0.1773336,0.17337 0.206613,0.32377 0.094575,0.48592 -0.099119,0.14345 -0.1285153,0.41431 -0.073125,0.67387 0.05694,0.26679 -5.168e-4,0.39941 -0.221862,0.51396 -0.1473231,0.0762 -0.1705087,0.0734 -0.4243021,-0.0512 -0.1476447,-0.0726 -0.3427722,-0.17966 -0.433584,-0.23813 -0.2043803,-0.13157 -0.3427625,-0.0758 -0.423912,0.17072 -0.19503,0.59257 0.090578,1.77178 0.7621016,3.14643 0.3525028,0.72159 0.4680212,0.91436 0.5495511,0.91696 0.056745,0.002 0.1380799,0.0262 0.1806584,0.054 0.09399,0.0616 0.527038,0.008 0.5798832,-0.0724 z M 2.494817,256.27092 c 0.2042437,-0.5639 0.2004119,-0.54954 0.3164958,-1.18716 0.054308,-0.29808 0.1151674,-0.60584 0.1353208,-0.68391 0.030225,-0.1172 0.01989,-0.14181 -0.05928,-0.14115 -0.1826474,0.002 -0.2344006,0.091 -0.4354074,0.75332 -0.1818869,0.59925 -0.201972,0.72144 -0.202206,1.23051 -1.462e-4,0.31086 0.019207,0.54313 0.042997,0.51615 0.02379,-0.027 0.114719,-0.24646 0.2021183,-0.48776 z m 3.4313394,-0.52763 c -0.1148553,-0.23496 -0.2495521,-0.54335 -0.2993163,-0.6853 -0.155669,-0.444 -0.1855626,-0.44982 -0.5137585,-0.10007 -0.3018904,0.32174 -0.489286,0.62308 -0.489286,0.78681 0,0.0536 0.047483,0.14028 0.1055441,0.19281 0.0936,0.0848 0.1315377,0.0886 0.3362397,0.0339 0.4260375,-0.11395 0.76568,-0.0537 0.9500531,0.16841 0.1471573,0.17731 0.1095807,0.0109 -0.089505,-0.39644 z m -2.9540557,-8.65991 c 0,-0.0283 -0.02457,-0.0516 -0.054698,-0.0516 -0.03003,0 -0.040267,0.0232 -0.022717,0.0516 0.01755,0.0283 0.04212,0.0516 0.054698,0.0516 0.01248,0 0.022717,-0.0232 0.022717,-0.0516 z m 16.1406563,11.27158 c -0.02008,-0.0201 -0.03656,-1.85139 -0.03656,-4.06948 0,-3.06789 -0.01482,-4.04772 -0.06191,-4.09485 -0.03403,-0.0341 -0.161812,-0.0619 -0.283892,-0.0619 -0.208242,0 -0.22194,-0.009 -0.22194,-0.14336 0,-0.0788 -0.03617,-0.19502 -0.08043,-0.25817 -0.118102,-0.16862 -0.05275,-0.21786 0.289187,-0.21786 0.292111,0 0.664064,-0.0652 0.91387,-0.1601 0.110799,-0.0421 0.116133,-0.0704 0.116133,-0.61642 0,-0.32729 0.02506,-0.61901 0.05841,-0.68144 0.03257,-0.0609 0.05431,-0.29737 0.04905,-0.53395 -0.0098,-0.44479 0.05782,-0.60052 0.152598,-0.3513 0.04056,0.10663 0.06786,0.1261 0.113315,0.0807 0.04544,-0.0455 0.03432,-0.0942 -0.04602,-0.20196 -0.165429,-0.22193 -0.412797,-0.34038 -0.735426,-0.35211 -0.213214,-0.008 -0.284311,-0.0287 -0.271733,-0.0805 0.06249,-0.25642 0.674137,-0.16642 1.001796,0.14743 0.10024,0.0961 0.151038,0.20821 0.174565,0.38553 0.03822,0.28786 0.09204,0.34331 0.220448,0.22707 0.05012,-0.0454 0.124147,-0.0828 0.164492,-0.0832 0.04037,-3.9e-4 0.105692,-0.0212 0.145199,-0.0463 0.05899,-0.0374 0.0508,-0.075 -0.04563,-0.2104 -0.1467,-0.20602 -0.31012,-0.72134 -0.31012,-0.97789 0,-0.19018 0.163313,-0.42507 0.241304,-0.34708 0.01882,0.0188 0.03695,0.22578 0.04037,0.45993 0.0069,0.45408 0.151447,1.01046 0.275575,1.05809 0.03851,0.0148 0.09604,0.0875 0.127696,0.16179 l 0.05763,0.13491 0.01941,-0.14308 c 0.02555,-0.1884 0.176953,-0.27649 0.55427,-0.32244 0.351634,-0.0428 0.976407,-0.0414 1.114994,0.003 0.06708,0.0212 0.115616,-0.0151 0.17593,-0.13174 0.06572,-0.12716 0.09817,-0.1488 0.153739,-0.10267 0.05323,0.0441 0.05782,0.0945 0.01902,0.20597 -0.0664,0.19051 -0.15097,0.219 -0.447263,0.15071 -0.228717,-0.0528 -1.109535,-0.0252 -1.279283,0.0398 -0.0741,0.0284 -0.104141,0.22462 -0.03393,0.22164 0.02126,-9.8e-4 0.08375,-0.0358 0.138899,-0.0774 0.0701,-0.0531 0.233825,-0.0757 0.545212,-0.0757 0.500635,0 0.526979,0.0161 0.875339,0.53371 0.09652,0.14338 0.187425,0.23051 0.213428,0.20451 0.05986,-0.0598 0.562723,-1.30513 0.562723,-1.39357 0,-0.10408 -0.318007,-0.28017 -0.449105,-0.2487 -0.0625,0.015 -0.306367,0.14322 -0.541966,0.28492 -0.483251,0.29065 -0.657095,0.31766 -0.843632,0.13113 -0.146153,-0.14616 -0.157892,-0.28806 -0.04924,-0.59593 0.098,-0.27776 0.0979,-0.50148 -5.18e-4,-0.6898 -0.04242,-0.0813 -0.07614,-0.18583 -0.07498,-0.23227 0.0039,-0.14535 0.322121,-0.44673 0.593055,-0.56134 0.229272,-0.0969 0.303421,-0.10435 0.632729,-0.063 0.238847,0.0301 0.514734,0.11231 0.766976,0.22886 0.34833,0.16093 0.442419,0.182 0.812666,0.182 0.266079,0 0.550379,0.038 0.779866,0.1041 0.198628,0.0573 0.881374,0.20858 1.517213,0.33628 1.268226,0.25473 1.927386,0.45252 2.414723,0.72458 0.407717,0.22761 0.859397,0.64032 1.034517,0.94525 0.07527,0.13107 0.200306,0.31245 0.277847,0.40309 0.206419,0.24124 0.493011,0.77491 0.649635,1.20969 0.118327,0.32849 0.137544,0.46508 0.140664,0.99985 0.0029,0.5436 -0.01765,0.70068 -0.169699,1.28371 -0.195937,0.75101 -0.195391,0.75299 0.208456,0.75432 0.316427,9.7e-4 0.392507,0.0348 0.486233,0.21609 0.138246,0.26732 -0.02282,0.54 -0.349918,0.5923 -0.109396,0.0174 -0.20947,0.049 -0.222389,0.0698 -0.01287,0.0208 0.0068,0.2854 0.04281,0.58779 l 0.06621,0.5498 0.255159,0.26101 c 0.182832,0.18703 0.394144,0.3265 0.745506,0.49203 0.269697,0.12707 0.571645,0.27047 0.671008,0.31868 0.23009,0.11164 0.283609,0.31992 0.0822,0.31992 -0.180726,0 -0.753599,-0.22156 -1.211812,-0.46868 -0.209655,-0.11307 -0.394496,-0.19227 -0.410759,-0.176 -0.01628,0.0163 0.04797,0.67316 0.142672,1.45976 0.127726,1.06052 0.197204,1.47431 0.268819,1.6009 0.0582,0.1028 0.09652,0.27177 0.09652,0.42484 0,0.23199 -0.0119,0.25714 -0.137027,0.28854 -0.07537,0.0189 -0.174077,0.0111 -0.219367,-0.0172 -0.111511,-0.07 -0.189511,-0.45195 -0.127881,-0.62629 0.03481,-0.0984 -0.0119,-0.61979 -0.164687,-1.84059 l -0.213204,-1.70331 -0.286896,-0.42102 c -0.20981,-0.30788 -0.306433,-0.50899 -0.359591,-0.74842 l -0.07274,-0.32741 -1.092052,-0.014 -1.092063,-0.014 -0.02555,0.11716 c -0.01404,0.0645 -0.153261,1.15076 -0.309378,2.41406 -0.215076,1.74048 -0.276355,2.38504 -0.252965,2.66079 0.02554,0.30137 0.0158,0.37899 -0.05685,0.45164 -0.108771,0.10878 -0.304347,0.11357 -0.390645,0.0103 -0.07917,-0.0953 -0.0354,-0.48897 0.07313,-0.65778 0.04807,-0.0748 0.176544,-0.94762 0.362682,-2.46425 0.158517,-1.29169 0.288026,-2.38916 0.287792,-2.43884 -5.17e-4,-0.0748 -0.04817,-0.0903 -0.277359,-0.0903 -0.551033,0 -0.650142,-0.23165 -0.442233,-1.03373 0.0587,-0.22639 0.09273,-0.45572 0.07557,-0.50963 -0.01707,-0.0539 -0.122685,-0.23972 -0.234606,-0.41288 -0.173248,-0.26805 -0.226084,-0.31485 -0.355505,-0.31485 -0.08688,0 -0.217758,-0.0553 -0.305371,-0.12903 -0.117947,-0.0992 -0.211206,-0.12886 -0.403984,-0.12825 -0.137836,5.2e-4 -0.279514,0.0191 -0.314829,0.0416 -0.05011,0.0318 -0.06708,0.93437 -0.07741,4.11555 l -0.01326,4.07478 h -0.129041 -0.129042 l -0.01326,-4.07478 c -0.01034,-3.18118 -0.0273,-4.08373 -0.07742,-4.11555 -0.08385,-0.0533 -5.825461,-0.0533 -5.90936,0 -0.05011,0.0318 -0.06708,0.93437 -0.07741,4.11555 -0.01316,4.05787 -0.01365,4.07484 -0.118581,4.08986 -0.05792,0.008 -0.121816,-9.7e-4 -0.14194,-0.0215 z m 11.965993,-5.63322 c -0.02223,-0.0579 -0.04709,-0.0652 -0.08667,-0.0257 -0.03958,0.0396 -0.03549,0.11236 0.01433,0.2538 l 0.06981,0.19832 0.01686,-0.17266 c 0.0088,-0.0949 0.003,-0.20918 -0.01433,-0.25381 z m -0.447292,-0.93615 c 0.0389,-0.0246 0.15013,-0.36692 0.247085,-0.76054 0.218099,-0.88545 0.2356,-1.37301 0.06834,-1.90285 -0.126965,-0.40215 -0.327328,-0.82513 -0.417136,-0.88064 -0.03432,-0.0212 -0.141356,0.0603 -0.257889,0.19673 -0.109542,0.12817 -0.290619,0.26961 -0.402394,0.31433 -0.111763,0.0448 -0.335819,0.16613 -0.497875,0.26981 -0.162065,0.10367 -0.425355,0.24629 -0.58509,0.31693 l -0.290434,0.12845 0.145685,0.11108 c 0.395179,0.30132 0.732979,0.65652 0.9845,1.03521 0.152647,0.22983 0.373085,0.50694 0.489851,0.61578 0.166599,0.1553 0.212307,0.23495 0.212307,0.36991 0,0.20659 0.13734,0.29078 0.303081,0.1858 z m -1.606377,-0.31498 c 0.149039,-0.0331 0.270983,-0.0784 0.270983,-0.10078 0,-0.0863 -1.736794,-1.37973 -1.786256,-1.33027 -0.03519,0.0352 0.170305,0.53767 0.345005,0.84382 0.08298,0.14539 0.150863,0.32375 0.150863,0.39634 0,0.22892 0.135164,0.31057 0.461586,0.27883 0.157766,-0.0153 0.40878,-0.0549 0.557819,-0.088 z m -2.620478,-2 c -5.17e-4,-0.0213 -0.127277,-0.23615 -0.281639,-0.47745 -0.154363,-0.24131 -0.38538,-0.63991 -0.513388,-0.88578 -0.20715,-0.39791 -0.254194,-0.4539 -0.428066,-0.50951 -0.107445,-0.0343 -0.267775,-0.1061 -0.356286,-0.15945 -0.08853,-0.0534 -0.184042,-0.0969 -0.212268,-0.0969 -0.05694,0 -0.581687,0.9649 -0.581687,1.06955 0,0.0362 0.03753,0.066 0.08346,0.066 0.06249,0 0.07468,0.0291 0.04836,0.11615 -0.06309,0.20848 -0.05568,0.26673 0.03597,0.28569 0.06377,0.0131 0.09028,-0.014 0.09028,-0.092 0,-0.0852 0.02662,-0.10677 0.116132,-0.094 0.08571,0.0123 0.112915,0.047 0.103838,0.13263 -0.01551,0.14567 0.118668,0.15661 0.156292,0.0128 0.03783,-0.14473 0.233758,-0.1346 0.29064,0.015 0.02476,0.0651 0.0822,0.14919 0.127764,0.18698 0.04554,0.0379 0.08278,0.12257 0.08278,0.18839 0,0.16814 0.04992,0.18312 0.379442,0.11399 0.263924,-0.0554 0.310051,-0.0509 0.51023,0.0498 0.231475,0.11627 0.349762,0.14285 0.348115,0.0782 z m -2.437859,-0.81727 c -0.04924,-0.0492 -0.147801,0.0305 -0.111141,0.0898 0.02184,0.0353 0.0507,0.0343 0.08775,-0.003 0.03042,-0.0304 0.04095,-0.0696 0.0234,-0.087 z m 4.069615,-0.46389 c 0.10961,-0.18704 0.123162,-0.24504 0.07176,-0.30702 -0.0349,-0.0421 -0.08434,-0.0765 -0.109999,-0.0765 -0.05958,0 -0.137583,0.20525 -0.180795,0.47546 -0.04203,0.26268 0.02856,0.23303 0.219073,-0.0921 z m -1.269454,-0.0479 c 0,-0.14624 -0.0197,-0.18065 -0.103234,-0.18065 -0.113793,0 -0.133722,0.10466 -0.04983,0.26147 0.08298,0.15507 0.153037,0.11807 0.153037,-0.0809 z m 9.120933,10.21346 c -0.02009,-0.0201 -0.03657,-1.8672 -0.03657,-4.10462 v -4.06806 l -0.116133,-0.0256 c -0.06386,-0.0141 -0.185815,-0.0319 -0.270982,-0.0397 -0.143882,-0.0131 -0.15485,-0.0287 -0.15485,-0.22061 v -0.20645 l 0.645199,-0.0315 c 0.354862,-0.0173 0.653846,-0.0348 0.664415,-0.0387 0.01063,-0.004 -0.01043,-0.0429 -0.0466,-0.0865 -0.07858,-0.0946 -0.03578,-1.35449 0.05148,-1.51764 0.02935,-0.0548 0.05324,-0.29853 0.05324,-0.54171 0,-0.28556 0.01999,-0.44213 0.05646,-0.44213 0.03101,0 0.06855,0.0465 0.08346,0.10324 0.02642,0.10109 0.11819,0.14662 0.11819,0.0586 0,-0.0865 -0.285695,-0.36461 -0.429197,-0.41773 -0.07995,-0.0296 -0.259916,-0.0538 -0.400014,-0.0538 -0.189287,0 -0.25472,-0.0194 -0.25472,-0.0756 0,-0.2127 0.467143,-0.22302 0.831269,-0.0185 0.20944,0.11772 0.333978,0.32103 0.381636,0.62306 0.03461,0.21897 0.03861,0.2214 0.195439,0.11873 0.06289,-0.0411 0.211059,-0.0903 0.329308,-0.10912 0.204799,-0.0326 0.219482,-0.0261 0.3097,0.13933 l 0.09467,0.17365 0.01599,-0.1934 c 0.01101,-0.13317 0.04982,-0.21151 0.124615,-0.25153 0.05976,-0.032 0.406743,-0.0702 0.771121,-0.085 0.434891,-0.0176 0.662018,-0.0465 0.661043,-0.0839 -7.8e-4,-0.0314 -0.169212,-0.2375 -0.374217,-0.458 -0.365109,-0.39271 -0.381002,-0.40296 -0.777711,-0.50241 -0.292696,-0.0734 -0.432082,-0.0869 -0.502721,-0.0493 -0.160155,0.0857 -0.253648,0.33122 -0.253648,0.66607 0,0.17174 -0.02115,0.31226 -0.04709,0.31226 -0.08794,0 -0.180901,-0.91347 -0.125092,-1.2298 0.02292,-0.12978 0.07273,-0.19191 0.204146,-0.25459 0.160203,-0.0765 0.212706,-0.0761 0.668736,0.005 0.571263,0.1012 0.730608,0.17176 0.933438,0.41314 0.08064,0.096 0.457082,0.41275 0.836564,0.70402 0.682112,0.52354 0.777369,0.56299 0.780275,0.32303 5.17e-4,-0.0359 0.02925,-0.11077 0.06406,-0.16646 0.04992,-0.0798 0.04992,-0.11457 0,-0.16446 -0.100979,-0.10099 -0.07381,-0.34624 0.07137,-0.64284 0.107777,-0.22028 0.128087,-0.31891 0.102016,-0.49549 -0.05412,-0.36654 -0.04378,-0.47518 0.05061,-0.5297 0.04953,-0.0286 0.167086,-0.11772 0.261203,-0.19798 0.107913,-0.0921 0.205502,-0.135 0.264197,-0.11637 0.05119,0.0163 0.168334,0.008 0.260315,-0.0185 0.122286,-0.0351 0.205219,-0.0282 0.308511,0.0258 0.07771,0.0405 0.176603,0.0738 0.219776,0.074 0.126926,5.1e-4 0.868183,0.45597 0.953153,0.58566 0.0429,0.0654 0.234792,0.22613 0.426477,0.35709 0.387213,0.26459 1.554536,1.48364 1.883443,1.96692 0.339028,0.49815 0.578889,1.03819 0.90924,2.04714 0.211118,0.64478 0.326373,1.09033 0.353848,1.36781 0.04026,0.40632 0.0431,0.41267 0.22547,0.50189 0.128739,0.063 0.4103,0.10576 0.92908,0.14117 1.5123,0.10326 1.789552,0.0625 2.148264,-0.31556 0.313269,-0.33018 0.394722,-0.73893 0.268176,-1.34576 -0.197195,-0.94557 -0.885353,-1.60136 -1.801124,-1.71638 -0.402872,-0.0506 -0.464541,-0.0746 -0.464541,-0.18099 0,-0.11865 0.09934,-0.15706 0.404237,-0.15628 0.812538,0.002 1.667909,0.57868 2.024244,1.36455 0.205588,0.45342 0.328634,1.1733 0.255967,1.49756 -0.116103,0.51808 -0.446532,0.93482 -0.909083,1.14659 -0.202782,0.0928 -0.400327,0.13168 -0.790583,0.15545 -0.517121,0.0315 -0.520251,0.0324 -0.521889,0.16585 -0.0029,0.23044 -0.220595,0.41803 -0.485308,0.41803 -0.09899,0 -0.132435,0.0266 -0.132435,0.10554 0,0.058 0.130105,1.16714 0.289118,2.46464 0.194883,1.59026 0.312547,2.38557 0.361034,2.4403 0.104618,0.11808 0.153202,0.54415 0.07303,0.6407 -0.07206,0.0867 -0.245243,0.1014 -0.357856,0.0302 -0.09409,-0.0596 -0.151934,-0.4525 -0.09311,-0.63267 0.0314,-0.0961 -0.04378,-0.85885 -0.243995,-2.47754 -0.159101,-1.28637 -0.300672,-2.3911 -0.314595,-2.45498 l -0.02535,-0.11613 h -1.337982 c -0.80079,0 -1.350292,0.02 -1.368661,0.0496 -0.01687,0.0273 -0.08766,0.49737 -0.157376,1.0446 -0.109015,0.85608 -0.118132,1.03644 -0.06533,1.2923 0.05724,0.27686 0.05294,0.31425 -0.06182,0.5426 -0.150842,0.30015 -0.382357,1.93361 -0.297404,2.09822 0.05937,0.11503 0.01268,0.53158 -0.07089,0.63225 -0.07664,0.0924 -0.276862,0.0888 -0.372276,-0.007 -0.09448,-0.0945 -0.05919,-0.43503 0.07224,-0.69789 0.04972,-0.0994 0.105876,-0.34324 0.124859,-0.54196 0.01902,-0.19872 0.0469,-0.41357 0.06201,-0.47745 0.04495,-0.18994 -0.06523,-0.13287 -0.255909,0.13256 -0.17398,0.24216 -0.605321,0.57716 -0.743137,0.57716 -0.140518,0 -0.07156,-0.29245 0.129304,-0.54812 0.395266,-0.50322 0.744211,-1.25842 0.581453,-1.25842 -0.02565,0 -0.205599,0.16895 -0.400024,0.37546 -0.331648,0.35226 -0.803618,0.70847 -0.938694,0.70847 -0.103,0 -0.06591,-0.13139 0.07401,-0.26199 0.148288,-0.13842 0.693773,-0.83922 0.782985,-1.0059 0.0312,-0.0583 0.09243,-0.31041 0.136014,-0.56025 0.07419,-0.42511 0.07273,-0.49821 -0.02262,-1.13968 -0.05606,-0.37699 -0.139377,-0.7751 -0.185232,-0.88471 -0.10062,-0.24057 -0.06903,-0.75004 0.06386,-1.03006 0.05295,-0.11166 0.315413,-0.37613 0.672831,-0.67806 0.322277,-0.27226 0.585967,-0.52726 0.585967,-0.56668 0,-0.19734 -0.318192,-0.63433 -0.461889,-0.63433 -0.04544,0 -0.267833,-0.1064 -0.494249,-0.23643 -0.966833,-0.5553 -1.551698,-0.80857 -2.022693,-0.87592 -0.212853,-0.0304 -0.288591,-0.0775 -0.545788,-0.33896 -0.164248,-0.16698 -0.333791,-0.30362 -0.37677,-0.30362 -0.140039,0 -0.384444,-0.1559 -0.765846,-0.48853 -0.456857,-0.39845 -0.7091,-0.47084 -1.442663,-0.41401 -0.474291,0.0367 -0.600134,0.0812 -0.600134,0.21206 0,0.0946 0.12595,0.0906 0.206456,-0.006 0.07644,-0.0921 0.873535,-0.11078 1.035171,-0.0243 0.0546,0.0292 0.216373,0.22665 0.359484,0.43873 0.259107,0.38396 0.355282,0.4671 0.341641,0.29529 -0.0048,-0.0585 0.03607,-0.0965 0.115684,-0.1077 0.112136,-0.0159 0.119301,-0.005 0.0822,0.12901 -0.07176,0.25829 -0.05733,0.40023 0.04281,0.42026 0.07459,0.0149 0.08989,-0.0103 0.07741,-0.12761 -0.01257,-0.11813 0.0069,-0.14941 0.100599,-0.16273 0.134531,-0.0191 0.136257,-0.011 0.05508,0.25973 -0.05041,0.16844 -0.04826,0.21168 0.01297,0.25037 0.123796,0.0784 0.159472,0.0549 0.142117,-0.0936 -0.01423,-0.12142 0.0039,-0.1443 0.125346,-0.15827 0.0993,-0.0114 0.141942,0.007 0.141942,0.0615 0,0.0428 -0.02321,0.0922 -0.05158,0.10971 -0.09535,0.0589 -0.05802,0.23227 0.05002,0.23227 0.06883,0 0.09204,-0.0248 0.07205,-0.0771 -0.03403,-0.0888 0.09682,-0.15555 0.215671,-0.10995 0.0627,0.0241 0.06777,0.0527 0.02398,0.13456 -0.07741,0.14461 0.03218,0.13891 0.151028,-0.008 0.10534,-0.13008 0.256397,-0.0995 0.298214,0.0604 0.01482,0.0567 0.04806,0.10297 0.0738,0.10297 0.09321,0 0.153884,0.26886 0.0973,0.43107 -0.07497,0.21499 -0.01911,0.2382 0.575788,0.23914 0.45989,7.7e-4 0.502487,0.0103 0.533726,0.10773 0.01872,0.0588 0.0198,0.16336 0.0029,0.23228 -0.02652,0.10559 -0.06279,0.12531 -0.230598,0.12531 -0.109542,0 -0.22509,0.0312 -0.256787,0.0694 -0.04105,0.0496 -0.06142,1.23095 -0.07089,4.11635 l -0.01326,4.04692 h -0.129029 -0.129041 l -0.01326,-4.07478 c -0.01033,-3.18118 -0.0273,-4.08374 -0.07741,-4.11555 -0.0353,-0.0225 -1.367881,-0.0412 -2.961271,-0.0416 -2.364617,-5.2e-4 -2.907645,0.012 -2.954669,0.0687 -0.04105,0.0496 -0.06142,1.23095 -0.07089,4.11635 -0.01316,4.02981 -0.01365,4.04698 -0.118579,4.062 -0.05792,0.008 -0.121817,-9.8e-4 -0.141941,-0.0216 z m 8.996143,-5.56806 c 0,-0.0783 -0.09409,-0.15534 -0.137193,-0.11229 -0.01492,0.0149 -0.0117,0.0756 0.0069,0.13496 0.03627,0.11425 0.130036,0.0979 0.130036,-0.0227 z m -1.792778,-4.72062 c -0.164542,-0.24017 -0.280235,-0.35954 -0.349276,-0.36043 -0.122957,-0.002 -0.847697,0.18222 -0.891573,0.2261 -0.06464,0.0647 0.08794,0.13501 0.660341,0.30469 0.879405,0.26068 0.876431,0.26155 0.580508,-0.17036 z m -1.097698,-1.13895 c 0.298078,-0.11949 0.56284,-0.23659 0.588346,-0.26022 0.05831,-0.054 -0.101082,-0.30634 -0.193411,-0.30634 -0.123182,0 -1.140452,0.40419 -1.15926,0.46061 -0.01016,0.0305 0.0069,0.0555 0.03744,0.0555 0.03072,0 0.05597,0.0721 0.05597,0.16037 0,0.10803 0.02106,0.15171 0.06455,0.13383 0.03549,-0.0147 0.308403,-0.12431 0.606481,-0.24379 z m -31.730698,11.30337 c -0.149868,-0.0602 -0.157356,-0.34312 -0.01697,-0.64019 0.07352,-0.15555 0.175422,-0.82034 0.393716,-2.56848 0.161987,-1.29725 0.280674,-2.39473 0.263738,-2.43884 -0.01696,-0.044 -0.08697,-0.0803 -0.155718,-0.0803 -0.172332,0 -0.336532,-0.14956 -0.37326,-0.33998 -0.02388,-0.12371 -0.002,-0.19295 0.09861,-0.3097 l 0.129335,-0.15036 h 2.016043 c 1.948106,0 2.019437,0.004 2.116635,0.10322 0.244736,0.25116 0.09204,0.69576 -0.239666,0.69761 -0.295777,0.002 -0.296313,-0.0934 0.01384,2.45512 0.21802,1.79165 0.312946,2.42191 0.388938,2.58227 0.05529,0.11666 0.100517,0.30886 0.100517,0.42711 0,0.18329 -0.0195,0.22241 -0.132415,0.26532 -0.286495,0.10893 -0.420314,-0.1293 -0.357055,-0.63564 0.03949,-0.31615 -0.514774,-4.92001 -0.605633,-5.03045 -0.07654,-0.093 -2.585057,-0.0928 -2.662297,2.1e-4 -0.02955,0.0356 -0.183154,1.11465 -0.341358,2.39787 -0.224914,1.82443 -0.280586,2.41653 -0.255305,2.71554 0.02925,0.34562 0.02174,0.39298 -0.07791,0.4926 -0.121631,0.12163 -0.136178,0.12436 -0.303772,0.0571 z"
       id="path4622"
       inkscape:connector-curvature="0" />
  </g>
</svg>
